<svg width="1280" height="720" viewBox="0 0 1280 720" fill="none" xmlns="http://www.w3.org/2000/svg">
<path d="M1280 720V10.2723C1271.33 8.24229 1262.66 6.21232 1254 4.68985C1212.88 -2.92254 1170.43 -4.19127 1131.75 23.7208C1031.73 96.0384 985.504 338.62 887.71 423.625C848.814 457.373 805.029 462.955 762.577 461.686C573.877 456.865 381.622 337.097 199.812 437.073C126.911 477.165 61.1217 549.99 0 638.294V720H1280Z" fill="#0D65D9"/>
<path d="M117.512 227.008C173.953 199.744 199.983 108.195 255.048 76.1475C276.948 63.4244 301.602 61.3198 325.505 61.7981C431.754 63.6157 540.005 108.769 642.374 71.0774C681.545 56.6324 716.961 31.0904 750 -0.0956573H0V224.616C16.1438 228.921 32.2877 232.078 48.6818 234.087C71.8338 237.052 95.7367 237.626 117.512 227.008Z" fill="#3A90EF"/>
</svg>
