<svg width="553" height="369" viewBox="0 0 553 369" fill="none" xmlns="http://www.w3.org/2000/svg">
<path d="M457.243 310.359C456.019 308.837 454.885 307.247 453.845 305.595C452.725 303.855 451.791 302.003 451.058 300.068C449.726 296.309 448.92 292.384 448.662 288.405C448.663 288.041 448.697 287.677 448.764 287.32C448.974 287.319 449.179 287.384 449.349 287.506C449.52 287.628 449.648 287.8 449.716 287.998C450.215 288.967 450.869 289.849 451.653 290.609C453.445 292.46 455.611 293.91 458.007 294.864C460.726 296.017 463.495 297.085 466.231 298.254L468.932 299.322C468.932 299.204 469.017 299.119 468.932 299.102C468.77 298.882 468.595 298.672 468.406 298.475C466.612 296.785 464.587 295.358 462.391 294.236C459.001 292.454 455.757 290.408 452.689 288.116C451.552 287.301 450.606 286.25 449.913 285.036C449.221 283.822 448.8 282.473 448.679 281.081C448.478 278.844 448.828 276.591 449.699 274.52C450.53 272.615 451.211 270.648 451.738 268.637C452.006 267.632 452.098 266.588 452.01 265.552C451.874 263.857 451.806 262.297 451.738 260.653C451.558 257.909 452.19 255.174 453.556 252.786C455.176 250.063 456.818 247.35 458.483 244.649C459.875 242.616 460.898 240.355 461.507 237.969C461.518 237.865 461.549 237.763 461.6 237.67C461.65 237.577 461.718 237.496 461.8 237.429C461.882 237.363 461.977 237.314 462.078 237.284C462.18 237.255 462.286 237.246 462.391 237.257C462.612 237.529 462.918 237.817 463.19 238.156C463.461 238.495 463.988 239.326 464.447 239.851C466.945 242.903 469.408 245.954 471.957 248.955C473.878 251.272 476.062 253.36 478.464 255.177L479.246 255.634C478.751 254.429 477.997 253.347 477.037 252.464C474.804 250.45 472.693 248.305 470.717 246.039C469.425 244.54 468.286 242.916 467.318 241.19C466.321 239.55 465.679 237.719 465.432 235.816C465.147 232.969 465.4 230.094 466.18 227.34C466.953 224.917 468.099 222.629 469.578 220.559C470.598 219.016 471.668 217.507 472.721 215.981C472.721 215.981 472.908 215.897 473.129 215.795C473.402 216.104 473.652 216.432 473.877 216.778C474.234 217.456 474.54 218.168 474.828 218.88C475.868 221.49 477.516 223.815 479.637 225.662C481.756 227.564 484.115 229.182 486.654 230.476C487.283 230.798 487.877 231.171 488.489 231.527C488.71 231.663 488.897 231.934 489.237 231.646C489.112 231.127 489.021 230.6 488.965 230.069C488.873 229.086 488.547 228.138 488.013 227.306C487.499 226.466 486.864 225.706 486.127 225.051C484.65 223.671 483.287 222.174 482.049 220.576C480.529 218.522 479.532 216.131 479.144 213.608C478.754 211.069 478.754 208.485 479.144 205.945C479.144 205.945 479.314 205.827 479.399 205.759C479.943 205.759 480.096 206.199 480.197 206.64C480.726 209.1 481.898 211.375 483.596 213.235C484.564 214.269 485.567 215.269 486.603 216.253C489.201 218.593 492.105 220.572 495.234 222.135C495.421 222.237 495.608 222.508 495.948 222.135C495.683 221.729 495.393 221.338 495.082 220.966C494.385 220.186 493.671 219.423 492.924 218.694C491.87 217.677 490.783 216.676 489.695 215.676C487.85 213.956 486.301 211.946 485.108 209.726C483.702 207.182 483.015 204.305 483.12 201.402C483.12 201.249 483.341 201.114 483.511 200.893C484.496 202.792 485.363 204.623 486.382 206.352C487.47 208.06 488.741 209.646 490.171 211.082C491.494 212.61 492.994 213.976 494.64 215.151C496.202 216.431 497.913 217.519 499.737 218.389C499.992 217.863 499.635 217.575 499.465 217.253C497.775 214.126 495.576 211.302 492.958 208.895C490.639 206.636 488.831 203.907 487.657 200.893C486.813 198.975 486.663 196.824 487.232 194.807C487.572 193.654 487.877 192.501 488.149 191.416C489.146 188.213 490.854 185.276 493.145 182.821C493.669 182.329 494.237 181.886 494.844 181.499C495.217 181.414 495.285 181.736 495.387 181.957C495.778 182.753 496.084 183.652 496.509 184.33C497.965 187.021 499.672 189.57 501.606 191.942C502.54 193.019 503.551 194.028 504.63 194.96C505.684 195.909 506.839 196.655 508.029 197.621C508.238 197.8 508.46 197.964 508.691 198.113C508.946 198.265 509.116 198.621 509.524 198.503C509.711 197.977 509.405 197.553 509.218 197.13C508.674 195.875 508.029 194.671 507.519 193.417C506.681 191.605 505.716 189.855 504.63 188.178C503.728 186.743 502.961 185.228 502.337 183.652C501.246 181.175 501.167 178.371 502.116 175.837C504.405 169.865 508.69 164.864 514.247 161.681C515.848 160.81 517.499 160.034 519.192 159.358C522.273 158.179 525.629 157.908 528.86 158.578C530.244 158.907 531.569 159.45 532.784 160.189C534.69 161.156 536.378 162.5 537.746 164.139C540.66 167.42 542.798 171.314 543.998 175.531C545.075 179.27 545.336 183.195 544.763 187.043C544.546 188.457 543.96 189.79 543.064 190.908C541.801 192.566 540.24 193.974 538.459 195.061C535.894 196.621 533.362 198.316 531 200.147C529.981 200.893 529.046 201.724 528.095 202.555C527.908 202.69 527.636 202.894 527.942 203.267L531.782 202.538C532.754 202.403 533.718 202.217 534.67 201.978C536.768 201.358 538.799 200.534 540.736 199.52C543.301 198.281 545.718 196.757 547.94 194.977C548.11 194.841 548.314 194.654 548.569 194.79H548.654C549.47 196.996 550.107 199.263 550.557 201.571C550.429 205.034 549.799 208.46 548.688 211.743C548.64 211.901 548.578 212.055 548.501 212.201C547.726 213.777 546.555 215.126 545.103 216.117C542.647 218.048 539.828 219.467 536.811 220.287C533.427 221.222 530.227 222.724 527.347 224.729C527.17 224.893 527.01 225.074 526.872 225.272C527.429 225.393 528.002 225.433 528.571 225.39C529.233 225.289 529.879 225.272 530.542 225.17C532.156 224.899 533.787 224.695 535.384 224.322C537.937 223.695 540.42 222.809 542.792 221.678C544.592 220.872 546.268 219.816 547.77 218.541C548.144 218.236 548.535 217.931 548.943 217.643C549.351 217.355 549.436 217.439 549.622 217.812C548.693 219.966 547.246 221.859 545.409 223.322C543.302 225.08 540.864 226.4 538.238 227.204C536.454 227.73 534.653 228.188 532.869 228.73C531.578 229.137 530.304 229.645 529.012 230.12C528.826 230.12 528.469 230.222 528.537 230.663C529.641 230.663 530.712 230.663 531.799 230.663C535.958 230.449 540.057 229.585 543.947 228.103C546.14 227.236 548.101 225.872 549.673 224.119C549.902 223.894 550.159 223.7 550.438 223.542C550.506 223.507 550.582 223.488 550.659 223.488C550.736 223.488 550.812 223.507 550.88 223.542C550.932 223.598 550.971 223.666 550.991 223.74C551.012 223.814 551.015 223.891 550.999 223.966C550.264 225.841 549.372 227.65 548.331 229.374C546.636 232.073 544.176 234.209 541.263 235.511C539.522 236.313 537.714 236.96 535.86 237.444C534.589 237.777 533.395 238.353 532.343 239.139C531.385 239.954 530.624 240.974 530.117 242.123C530.847 242.123 531.527 242.004 532.224 242.021C534.581 242.07 536.937 241.888 539.258 241.479C542.758 240.991 546.06 239.561 548.807 237.342C549.436 236.8 550.098 236.325 550.744 235.799C550.93 235.644 551.148 235.53 551.383 235.466C551.617 235.401 551.863 235.388 552.103 235.426C552.188 236.376 552.256 237.24 552.358 238.105C552.511 239.461 552.732 240.801 552.868 242.157C553.288 245.871 552.702 249.63 551.169 253.041C550.504 254.717 549.562 256.27 548.382 257.635C546.227 259.832 543.642 261.564 540.787 262.721C538.222 263.823 535.575 264.725 532.869 265.416C531.368 265.725 529.92 266.25 528.571 266.976C528.333 267.112 527.891 267.112 527.908 267.552C528.01 267.552 528.129 267.671 528.214 267.654C530.597 267.346 532.939 266.777 535.197 265.959C540.379 264.009 545.494 261.941 550.489 259.534C550.68 259.397 550.908 259.324 551.143 259.324C551.378 259.324 551.607 259.397 551.797 259.534C551.839 259.832 551.839 260.134 551.797 260.432C551.45 261.696 551.296 263.005 551.338 264.314C551.338 266.45 551.525 268.57 551.627 270.689C551.729 272.808 551.916 275.164 551.967 277.47C552.029 279.556 551.568 281.625 550.625 283.488C549.861 285.002 549.016 286.473 548.093 287.896C546.861 289.708 546.064 291.779 545.765 293.948C545.579 295.525 545.307 297.085 545.137 298.661C544.984 300.244 544.523 301.782 543.778 303.188C543.106 304.663 542.078 305.948 540.784 306.928C539.491 307.907 537.974 308.55 536.369 308.799C532.647 309.421 528.878 309.721 525.104 309.698C522.475 309.663 519.854 310.005 517.323 310.715C517.074 310.84 516.84 310.994 516.626 311.173L517.306 311.274C520.517 311.63 523.728 312.037 526.94 312.308C528.788 312.478 530.647 312.478 532.496 312.308C534.861 312.162 537.144 311.383 539.105 310.054C539.326 309.884 539.683 309.918 539.989 309.867C540.158 310.613 539.666 311.003 539.377 311.427C538.12 313.241 536.845 315.021 535.435 316.716H464.43C461.701 315.005 459.272 312.857 457.243 310.359Z" fill="#C5EDB2"/>
<path d="M481.132 316.462C481.869 314.773 482.836 313.193 484.004 311.766C485.548 309.827 487.584 308.335 489.899 307.443C491.038 307.019 492.159 306.544 493.298 306.171C494.903 305.604 496.356 304.676 497.545 303.459C500.301 300.826 502.382 297.569 503.611 293.965C504.647 290.884 505.414 287.719 505.905 284.505C506.151 283.168 506.287 281.813 506.313 280.454C506.313 279.08 506.652 277.775 506.737 276.368C506.55 276.368 506.347 276.283 506.211 276.368C505.942 276.484 505.695 276.644 505.48 276.843C504.189 277.928 502.914 279.063 501.589 280.115C499.631 281.705 497.286 282.752 494.793 283.149C491.22 283.755 487.549 283.356 484.19 281.996C484.021 281.996 483.698 281.996 483.715 281.539C486.288 281.661 488.867 281.519 491.412 281.115C494.172 280.794 496.873 280.08 499.431 278.996C500.787 278.45 502.057 277.714 503.203 276.809C505.438 274.954 506.859 272.302 507.162 269.417C507.383 267.101 507.315 264.766 506.958 262.466C506.623 260.457 506.106 258.482 505.412 256.567C504.272 252.986 502.673 249.567 500.655 246.395C498.956 243.75 497.155 241.157 495.319 238.58C493.282 235.793 491.448 232.864 489.831 229.815C487.993 226.774 486.704 223.434 486.025 219.948C486.02 219.803 485.971 219.663 485.885 219.546C485.799 219.429 485.68 219.34 485.543 219.291C485.406 219.242 485.258 219.235 485.116 219.27C484.975 219.306 484.848 219.382 484.751 219.491C484.026 220.206 483.173 220.781 482.237 221.186C481.364 221.615 480.481 222.022 479.586 222.407C477.01 223.562 474.338 224.492 471.6 225.187C467.59 226.17 463.546 227.035 459.52 227.933C455.597 228.712 451.782 229.953 448.153 231.629C445.444 232.837 442.88 234.344 440.507 236.122C438.523 237.609 436.776 239.386 435.325 241.394C434.355 242.739 433.706 244.288 433.429 245.922C433.153 247.556 433.255 249.231 433.727 250.82C434.322 252.93 435.227 254.941 436.412 256.787C438.35 259.816 440.668 262.585 443.31 265.026C443.582 265.281 443.837 265.552 444.092 265.806L443.905 266.044C442.911 265.662 441.94 265.22 441 264.721C439.286 263.701 437.725 262.445 436.361 260.992C434.075 258.638 432.609 255.612 432.181 252.362L431.621 247.751C431.61 247.459 431.564 247.168 431.485 246.887C431.485 246.7 431.196 246.565 430.958 246.327C430.669 246.785 430.465 247.158 430.21 247.514C429.955 247.87 429.548 248.48 429.191 248.921C428.426 249.87 427.611 250.769 426.897 251.735C425.213 254.06 423.708 256.508 422.394 259.059C421.047 261.425 420.1 263.997 419.591 266.671C419.19 268.622 419.041 270.616 419.149 272.604C419.208 273.967 419.501 275.309 420.016 276.571C420.61 277.843 421.256 279.097 421.885 280.352C422.584 281.621 423.05 283.005 423.261 284.438C423.605 286.897 423.408 289.402 422.683 291.778C422.089 293.575 421.579 295.406 420.984 297.186C420.417 298.79 420.096 300.471 420.033 302.17C419.944 303.431 420.036 304.699 420.305 305.934C421.379 310.34 424.143 314.15 428.001 316.547H481.149C481.146 316.518 481.14 316.49 481.132 316.462Z" fill="#4CA025"/>
<path d="M506.652 0H74.3862C68.2586 0 63.2911 4.95635 63.2911 11.0703V242.886C63.2911 249 68.2586 253.956 74.3862 253.956H506.652C512.78 253.956 517.747 249 517.747 242.886V11.0703C517.747 4.95635 512.78 0 506.652 0Z" fill="#A0A0A0"/>
<path d="M500.756 237.003V16.953L80.2819 16.953V237.003L500.756 237.003Z" fill="#F4F4F4"/>
<path d="M330.66 253.956H250.361V302.95H330.66V253.956Z" fill="#707070"/>
<path d="M400.082 188H181.085C173.361 188 167 181.791 167 173.915V61.0849C167 53.3609 173.361 47 181.085 47H400.082C407.806 47 414.166 53.3609 414.166 61.0849V173.915C414.166 181.791 407.806 188 400.082 188Z" fill="white"/>
<path d="M402.05 47H179.116C172.452 47 167 53.3609 167 61.0849V75.1697H414.166V61.0849C414.166 53.3609 408.714 47 402.05 47Z" fill="#0D65D9"/>
<path d="M183.66 66.6885C186.754 66.6885 189.263 64.1797 189.263 61.0849C189.263 57.99 186.754 55.4812 183.66 55.4812C180.565 55.4812 178.056 57.99 178.056 61.0849C178.056 64.1797 180.565 66.6885 183.66 66.6885Z" fill="#FF504E"/>
<path d="M205.62 61.0849C205.62 63.5081 203.651 65.6284 201.076 65.6284C198.502 65.6284 196.533 63.6595 196.533 61.0849C196.533 58.5102 198.502 56.5414 201.076 56.5414C203.651 56.5414 205.62 58.6617 205.62 61.0849Z" fill="white"/>
<path d="M223.188 61.0849C223.188 63.5081 221.219 65.6284 218.645 65.6284C216.221 65.6284 214.101 63.6595 214.101 61.0849C214.101 58.5102 216.07 56.5414 218.645 56.5414C221.219 56.5414 223.188 58.6617 223.188 61.0849Z" fill="white"/>
<path d="M250.58 109.145H244.506V111.342H249.506V114.828H244.506V117.084H250.58V121H240.375V105.258H250.58V109.145ZM257.826 121.215C256.524 121.215 255.339 120.951 254.271 120.424C253.21 119.896 252.484 119.2 252.094 118.334L254.623 115.854C254.949 116.335 255.395 116.716 255.961 116.996C256.534 117.27 257.152 117.406 257.816 117.406C258.298 117.406 258.712 117.322 259.057 117.152C259.402 116.983 259.574 116.745 259.574 116.439C259.574 116.309 259.535 116.179 259.457 116.049C259.385 115.919 259.262 115.788 259.086 115.658C258.91 115.521 258.744 115.401 258.588 115.297C258.432 115.193 258.204 115.069 257.904 114.926C257.611 114.776 257.377 114.662 257.201 114.584C257.025 114.506 256.765 114.389 256.42 114.232C255.886 113.998 255.411 113.747 254.994 113.48C254.577 113.214 254.19 112.901 253.832 112.543C253.474 112.178 253.197 111.755 253.002 111.273C252.813 110.792 252.719 110.264 252.719 109.691C252.719 108.806 252.976 108.005 253.49 107.289C254.005 106.566 254.685 106.01 255.531 105.619C256.384 105.222 257.305 105.023 258.295 105.023C259.473 105.023 260.505 105.274 261.391 105.775C262.276 106.27 262.875 106.915 263.188 107.709L260.775 110.033C260.561 109.649 260.209 109.356 259.721 109.154C259.239 108.946 258.78 108.842 258.344 108.842C257.921 108.842 257.569 108.936 257.289 109.125C257.009 109.314 256.869 109.545 256.869 109.818C256.869 109.923 256.889 110.017 256.928 110.102C256.973 110.186 257.042 110.268 257.133 110.346C257.23 110.424 257.331 110.495 257.436 110.561C257.54 110.619 257.683 110.688 257.865 110.766C258.048 110.837 258.217 110.906 258.373 110.971C258.536 111.029 258.744 111.111 258.998 111.215C259.252 111.312 259.48 111.404 259.682 111.488C262.41 112.634 263.773 114.255 263.773 116.352C263.773 117.322 263.493 118.181 262.934 118.93C262.38 119.678 261.654 120.248 260.756 120.639C259.864 121.023 258.887 121.215 257.826 121.215ZM276.469 105.258V109.164H272.699V121H268.51V109.164H264.73V105.258H276.469ZM287.172 121L286.381 119.164H280.502L279.701 121H275.131L282.445 105.062H284.428L291.752 121H287.172ZM281.82 116.107H285.053L283.441 112.377L281.82 116.107ZM308.52 105.111H310.199V121H306.02V114.76L301.781 120.736H301.752L297.504 114.76V121H293.324V105.111H295.004L301.762 114.369L308.52 105.111ZM320.883 121.4C319.678 121.4 318.542 121.189 317.475 120.766C316.407 120.342 315.489 119.766 314.721 119.037C313.959 118.308 313.357 117.432 312.914 116.41C312.471 115.388 312.25 114.301 312.25 113.148C312.25 111.983 312.471 110.886 312.914 109.857C313.363 108.829 313.969 107.95 314.73 107.221C315.499 106.485 316.417 105.906 317.484 105.482C318.552 105.053 319.688 104.838 320.893 104.838C322.097 104.838 323.233 105.053 324.301 105.482C325.368 105.906 326.283 106.485 327.045 107.221C327.813 107.95 328.419 108.829 328.861 109.857C329.311 110.886 329.535 111.983 329.535 113.148C329.535 114.685 329.158 116.085 328.402 117.348C327.647 118.611 326.605 119.604 325.277 120.326C323.956 121.042 322.491 121.4 320.883 121.4ZM317.748 116.176C318.594 116.996 319.643 117.406 320.893 117.406C322.143 117.406 323.191 116.996 324.037 116.176C324.883 115.349 325.307 114.33 325.307 113.119C325.307 111.902 324.883 110.88 324.037 110.053C323.191 109.226 322.143 108.812 320.893 108.812C319.643 108.812 318.594 109.226 317.748 110.053C316.902 110.88 316.479 111.902 316.479 113.119C316.479 114.33 316.902 115.349 317.748 116.176ZM336.498 121.215C335.196 121.215 334.011 120.951 332.943 120.424C331.882 119.896 331.156 119.2 330.766 118.334L333.295 115.854C333.62 116.335 334.066 116.716 334.633 116.996C335.206 117.27 335.824 117.406 336.488 117.406C336.97 117.406 337.383 117.322 337.729 117.152C338.074 116.983 338.246 116.745 338.246 116.439C338.246 116.309 338.207 116.179 338.129 116.049C338.057 115.919 337.934 115.788 337.758 115.658C337.582 115.521 337.416 115.401 337.26 115.297C337.104 115.193 336.876 115.069 336.576 114.926C336.283 114.776 336.049 114.662 335.873 114.584C335.697 114.506 335.437 114.389 335.092 114.232C334.558 113.998 334.083 113.747 333.666 113.48C333.249 113.214 332.862 112.901 332.504 112.543C332.146 112.178 331.869 111.755 331.674 111.273C331.485 110.792 331.391 110.264 331.391 109.691C331.391 108.806 331.648 108.005 332.162 107.289C332.676 106.566 333.357 106.01 334.203 105.619C335.056 105.222 335.977 105.023 336.967 105.023C338.145 105.023 339.177 105.274 340.062 105.775C340.948 106.27 341.547 106.915 341.859 107.709L339.447 110.033C339.232 109.649 338.881 109.356 338.393 109.154C337.911 108.946 337.452 108.842 337.016 108.842C336.592 108.842 336.241 108.936 335.961 109.125C335.681 109.314 335.541 109.545 335.541 109.818C335.541 109.923 335.561 110.017 335.6 110.102C335.645 110.186 335.714 110.268 335.805 110.346C335.902 110.424 336.003 110.495 336.107 110.561C336.212 110.619 336.355 110.688 336.537 110.766C336.719 110.837 336.889 110.906 337.045 110.971C337.208 111.029 337.416 111.111 337.67 111.215C337.924 111.312 338.152 111.404 338.354 111.488C341.081 112.634 342.445 114.255 342.445 116.352C342.445 117.322 342.165 118.181 341.605 118.93C341.052 119.678 340.326 120.248 339.428 120.639C338.536 121.023 337.559 121.215 336.498 121.215ZM218.764 148H213.871L209.662 141.164V148H205.482L205.463 132.258H211.439C212.546 132.258 213.546 132.489 214.438 132.951C215.336 133.407 216.033 134.025 216.527 134.807C217.022 135.581 217.27 136.438 217.27 137.375C217.27 138.332 217.012 139.198 216.498 139.973C215.99 140.747 215.339 141.317 214.545 141.682L218.764 148ZM209.643 136.018V139.172L211.352 139.182C211.814 139.188 212.211 139.045 212.543 138.752C212.882 138.452 213.051 138.068 213.051 137.6C213.051 137.131 212.882 136.75 212.543 136.457C212.211 136.164 211.814 136.018 211.352 136.018H209.643ZM230.473 136.145H224.398V138.342H229.398V141.828H224.398V144.084H230.473V148H220.268V132.258H230.473V136.145ZM248.002 132.111H249.682V148H245.502V141.76L241.264 147.736H241.234L236.986 141.76V148H232.807V132.111H234.486L241.244 141.369L248.002 132.111ZM260.365 148.4C259.161 148.4 258.025 148.189 256.957 147.766C255.889 147.342 254.971 146.766 254.203 146.037C253.441 145.308 252.839 144.432 252.396 143.41C251.954 142.388 251.732 141.301 251.732 140.148C251.732 138.983 251.954 137.886 252.396 136.857C252.846 135.829 253.451 134.95 254.213 134.221C254.981 133.485 255.899 132.906 256.967 132.482C258.035 132.053 259.171 131.838 260.375 131.838C261.579 131.838 262.715 132.053 263.783 132.482C264.851 132.906 265.766 133.485 266.527 134.221C267.296 134.95 267.901 135.829 268.344 136.857C268.793 137.886 269.018 138.983 269.018 140.148C269.018 141.685 268.64 143.085 267.885 144.348C267.13 145.611 266.088 146.604 264.76 147.326C263.438 148.042 261.973 148.4 260.365 148.4ZM257.23 143.176C258.077 143.996 259.125 144.406 260.375 144.406C261.625 144.406 262.673 143.996 263.52 143.176C264.366 142.349 264.789 141.33 264.789 140.119C264.789 138.902 264.366 137.88 263.52 137.053C262.673 136.226 261.625 135.812 260.375 135.812C259.125 135.812 258.077 136.226 257.23 137.053C256.384 137.88 255.961 138.902 255.961 140.119C255.961 141.33 256.384 142.349 257.23 143.176ZM276.205 132.258C278.881 132.245 280.987 132.941 282.523 134.348C284.06 135.754 284.828 137.688 284.828 140.148C284.828 142.59 284.06 144.51 282.523 145.91C280.987 147.303 278.881 148 276.205 148H271.068V132.268L276.205 132.258ZM276.137 144.064C277.536 144.064 278.637 143.716 279.438 143.02C280.238 142.316 280.639 141.356 280.639 140.139C280.639 138.902 280.235 137.932 279.428 137.229C278.62 136.519 277.51 136.164 276.098 136.164H275.141V144.064H276.137ZM297.094 136.145H291.02V138.342H296.02V141.828H291.02V144.084H297.094V148H286.889V132.258H297.094V136.145ZM303.607 144.074H309.633V148H299.428V132.258H303.607V144.074ZM322.299 148L321.508 146.164H315.629L314.828 148H310.258L317.572 132.062H319.555L326.879 148H322.299ZM316.947 143.107H320.18L318.568 139.377L316.947 143.107ZM337.865 132.238H342.055V148.156H340.727L332.631 140.314V148.01H328.451V132.102H329.799L337.865 139.914V132.238ZM349.936 132.258C352.611 132.245 354.717 132.941 356.254 134.348C357.79 135.754 358.559 137.688 358.559 140.148C358.559 142.59 357.79 144.51 356.254 145.91C354.717 147.303 352.611 148 349.936 148H344.799V132.268L349.936 132.258ZM349.867 144.064C351.267 144.064 352.367 143.716 353.168 143.02C353.969 142.316 354.369 141.356 354.369 140.139C354.369 138.902 353.965 137.932 353.158 137.229C352.351 136.519 351.241 136.164 349.828 136.164H348.871V144.064H349.867ZM368.568 148.4C367.364 148.4 366.228 148.189 365.16 147.766C364.092 147.342 363.174 146.766 362.406 146.037C361.645 145.308 361.042 144.432 360.6 143.41C360.157 142.388 359.936 141.301 359.936 140.148C359.936 138.983 360.157 137.886 360.6 136.857C361.049 135.829 361.654 134.95 362.416 134.221C363.184 133.485 364.102 132.906 365.17 132.482C366.238 132.053 367.374 131.838 368.578 131.838C369.783 131.838 370.919 132.053 371.986 132.482C373.054 132.906 373.969 133.485 374.73 134.221C375.499 134.95 376.104 135.829 376.547 136.857C376.996 137.886 377.221 138.983 377.221 140.148C377.221 141.685 376.843 143.085 376.088 144.348C375.333 145.611 374.291 146.604 372.963 147.326C371.641 148.042 370.176 148.4 368.568 148.4ZM365.434 143.176C366.28 143.996 367.328 144.406 368.578 144.406C369.828 144.406 370.876 143.996 371.723 143.176C372.569 142.349 372.992 141.33 372.992 140.119C372.992 138.902 372.569 137.88 371.723 137.053C370.876 136.226 369.828 135.812 368.578 135.812C367.328 135.812 366.28 136.226 365.434 137.053C364.587 137.88 364.164 138.902 364.164 140.119C364.164 141.33 364.587 142.349 365.434 143.176Z" fill="#A0A0A0"/>
<path d="M445.4 302.95H135.638C131.447 302.946 127.381 304.376 124.119 307.002L101.945 324.769C101.446 325.169 101.082 325.714 100.906 326.328C100.73 326.943 100.75 327.597 100.963 328.2C101.175 328.803 101.57 329.326 102.094 329.695C102.617 330.064 103.242 330.262 103.882 330.262H477.088C477.73 330.266 478.358 330.07 478.884 329.702C479.409 329.334 479.807 328.812 480.022 328.208C480.237 327.604 480.258 326.949 480.082 326.332C479.907 325.716 479.543 325.17 479.042 324.769L456.954 307.002C453.683 304.369 449.603 302.938 445.4 302.95Z" fill="#A0A0A0"/>
<path d="M95.6589 333.415C96.8783 331.896 98.0128 330.311 99.0571 328.668C100.222 326.932 101.191 325.073 101.946 323.124C103.285 319.367 104.092 315.441 104.341 311.461C104.349 311.096 104.314 310.732 104.239 310.376C104.031 310.374 103.828 310.438 103.66 310.561C103.491 310.683 103.367 310.856 103.305 311.054C102.775 312.012 102.099 312.881 101.3 313.631C99.5137 315.489 97.346 316.941 94.9453 317.886C92.2267 319.039 89.4742 320.107 86.7217 321.277L84.0201 322.345C84.0201 322.226 83.9352 322.141 84.0201 322.124C84.1829 321.9 84.3648 321.69 84.5638 321.497C86.3483 319.804 88.3684 318.376 90.5616 317.259C93.9493 315.469 97.188 313.411 100.246 311.105C101.383 310.289 102.33 309.239 103.022 308.024C103.714 306.81 104.135 305.461 104.256 304.069C104.473 301.832 104.122 299.576 103.237 297.508C102.414 295.6 101.732 293.634 101.198 291.626C100.938 290.619 100.846 289.577 100.926 288.54C101.062 286.845 101.13 285.285 101.198 283.658C101.389 280.908 100.756 278.164 99.3799 275.775C97.7828 273.045 96.1346 270.333 94.4695 267.637C93.0709 265.608 92.0467 263.346 91.4451 260.958C91.4326 260.853 91.3992 260.751 91.347 260.659C91.2947 260.567 91.2246 260.487 91.1408 260.422C91.057 260.357 90.9611 260.31 90.8588 260.282C90.7564 260.255 90.6496 260.248 90.5446 260.263C90.3237 260.517 90.0179 260.805 89.763 261.144C89.5082 261.483 88.9475 262.314 88.5057 262.839C86.0081 265.891 83.5274 268.943 80.9787 271.943C79.0667 274.269 76.8819 276.358 74.4712 278.165L73.6896 278.623C74.1895 277.416 74.9494 276.334 75.9154 275.453C78.1393 273.434 80.2441 271.289 82.2191 269.027C83.5124 267.535 84.6509 265.917 85.6173 264.196C86.6121 262.548 87.2543 260.712 87.5033 258.805C87.7889 255.957 87.5353 253.082 86.7557 250.328C85.9764 247.908 84.8304 245.621 83.3575 243.547C82.321 242.004 81.2506 240.495 80.1972 238.97C80.1972 238.97 80.0103 238.885 79.7894 238.783C79.5214 239.096 79.2718 239.425 79.0418 239.766C78.6888 240.448 78.3767 241.15 78.1073 241.869C77.0552 244.476 75.402 246.799 73.2819 248.65C71.1696 250.585 68.81 252.232 66.2646 253.549C65.6359 253.871 65.0243 254.244 64.4126 254.6C64.1917 254.736 64.0218 255.007 63.682 254.719C63.7945 254.198 63.8795 253.672 63.9368 253.142C64.0423 252.159 64.3737 251.214 64.9053 250.379C65.4134 249.54 66.0432 248.78 66.7743 248.124C68.26 246.752 69.6244 245.255 70.8521 243.649C72.4235 241.601 73.4573 239.194 73.8595 236.647C74.2502 234.113 74.2502 231.535 73.8595 229.001C73.8595 228.917 73.7066 228.866 73.6217 228.798C73.061 228.798 72.9081 229.239 72.8061 229.679C72.2919 232.144 71.1175 234.423 69.4079 236.274C68.4394 237.308 67.437 238.308 66.4175 239.292C63.8164 241.628 60.9135 243.607 57.7861 245.174C57.5822 245.276 57.3953 245.547 57.0555 245.174C57.2753 244.812 57.5134 244.461 57.7691 244.123C58.4658 243.344 59.1624 242.581 59.91 241.852C60.9634 240.834 62.0678 239.834 63.1383 238.834C64.9881 237.119 66.5385 235.107 67.7258 232.884C69.1318 230.34 69.8189 227.463 69.7138 224.56C69.7138 224.407 69.5099 224.271 69.34 224.051C68.3375 225.967 67.471 227.781 66.4685 229.51C65.3694 231.211 64.0999 232.795 62.6795 234.24C61.3432 235.766 59.8385 237.136 58.1939 238.325C56.6301 239.599 54.9187 240.68 53.0966 241.546C52.8588 241.021 53.1986 240.733 53.3685 240.411C55.0583 237.284 57.2575 234.46 59.876 232.053C62.2003 229.798 64.0086 227.068 65.1772 224.051C66.0359 222.136 66.1864 219.98 65.602 217.965C65.2621 216.812 64.9733 215.659 64.7014 214.574C63.6666 211.366 61.9249 208.429 59.6042 205.979C59.0802 205.487 58.5114 205.044 57.9051 204.657C57.5313 204.657 57.4633 204.911 57.3614 205.114C56.9876 205.911 56.6647 206.81 56.2569 207.488C54.8102 210.185 53.103 212.734 51.1597 215.1C50.2412 216.18 49.2415 217.189 48.1693 218.117C47.1158 219.067 45.9604 219.813 44.7711 220.779C44.5674 220.958 44.3517 221.122 44.1254 221.271C43.8536 221.423 43.6837 221.779 43.2929 221.661C43.089 221.135 43.3948 220.711 43.5817 220.287C44.1254 219.033 44.7711 217.829 45.2808 216.575C46.0635 214.77 46.9778 213.025 48.0163 211.353C48.9183 209.918 49.6861 208.402 50.3101 206.827C51.3935 204.348 51.4726 201.547 50.531 199.011C48.3002 193.05 44.0909 188.03 38.6034 184.788C37.0248 183.924 35.3965 183.154 33.727 182.482C30.6401 181.302 27.2787 181.032 24.0422 181.702C22.6571 182.055 21.3377 182.628 20.1342 183.398C18.2258 184.36 16.5368 185.705 15.1729 187.348C12.253 190.628 10.1102 194.522 8.90324 198.74C7.83599 202.48 7.5754 206.403 8.13865 210.251C8.36932 211.662 8.9538 212.992 9.83774 214.117C11.104 215.771 12.6648 217.179 14.4423 218.27C17.0079 219.847 19.5396 221.542 21.9183 223.356C22.9208 224.102 23.8722 224.95 24.8237 225.763C24.9936 225.899 25.2825 226.102 24.9597 226.475L21.0857 225.475C20.1079 225.341 19.138 225.154 18.1803 224.916C16.0815 224.3 14.0495 223.476 12.1145 222.457C9.54953 221.218 7.13287 219.694 4.91037 217.914C4.74046 217.778 4.55356 217.592 4.28171 217.728C3.45213 219.93 2.80987 222.199 2.36174 224.509C2.49843 227.971 3.12773 231.395 4.23074 234.681C4.23074 234.833 4.36666 234.986 4.41764 235.138C5.19268 236.714 6.36337 238.063 7.81582 239.054C10.2712 240.986 13.091 242.404 16.1074 243.225C19.4619 244.168 22.6328 245.67 25.4864 247.667C25.663 247.837 25.8224 248.024 25.9621 248.226C25.4037 248.342 24.8313 248.376 24.263 248.328C23.6174 248.226 22.9547 248.209 22.3091 248.107C20.61 247.853 19.0468 247.633 17.4497 247.26C14.9046 246.631 12.4287 245.751 10.0586 244.632C8.26683 243.822 6.59698 242.766 5.09727 241.496C4.72347 241.174 4.33268 240.868 3.94189 240.58C3.89259 240.526 3.8295 240.486 3.75929 240.464C3.68908 240.443 3.61434 240.441 3.54299 240.458C3.47163 240.475 3.4063 240.512 3.3539 240.563C3.30149 240.614 3.26396 240.679 3.24526 240.75C4.18029 242.901 5.6266 244.792 7.45901 246.259C9.568 248.014 12.0052 249.334 14.6292 250.142C16.3283 250.667 18.2143 251.125 19.9983 251.667C21.3066 252.074 22.5809 252.583 23.8553 253.058C24.0591 253.058 24.399 253.159 24.331 253.6C23.2436 253.6 22.1562 253.6 21.0857 253.6C16.9214 253.386 12.8164 252.523 8.92023 251.04C6.72749 250.174 4.76708 248.81 3.19429 247.056C2.96959 246.827 2.71188 246.633 2.4297 246.48C2.36155 246.444 2.28576 246.426 2.20882 246.426C2.13188 246.426 2.05608 246.444 1.98793 246.48C1.93825 246.537 1.90306 246.606 1.88533 246.679C1.86759 246.753 1.86782 246.83 1.88599 246.904C2.61658 248.785 3.5091 250.601 4.55356 252.329C6.25433 255.023 8.7127 257.157 11.6218 258.466C13.3527 259.271 15.1489 259.929 16.9909 260.432C18.2631 260.776 19.4611 261.351 20.525 262.127C21.4724 262.952 22.2314 263.969 22.7508 265.111C22.0202 265.111 21.3236 264.993 20.627 265.009C18.2698 265.068 15.9128 264.886 13.5927 264.467C10.1564 263.978 6.91611 262.572 4.21375 260.398C3.58508 259.873 2.92244 259.381 2.29377 258.872C2.10658 258.712 1.88647 258.593 1.64878 258.526C1.41108 258.459 1.16153 258.444 0.917507 258.483C0.917507 259.432 0.781579 260.297 0.679634 261.161C0.509725 262.517 0.288843 263.857 0.169906 265.213C-0.267947 268.928 0.319565 272.691 1.869 276.097C2.52678 277.776 3.46938 279.33 4.65551 280.691C6.80106 282.892 9.38161 284.624 12.2335 285.777C14.7994 286.877 17.4465 287.778 20.1512 288.472C21.652 288.783 23.0999 289.308 24.4499 290.032C24.6878 290.168 25.1296 290.168 25.1126 290.609C25.0106 290.609 24.9087 290.727 24.8067 290.71C22.4242 290.4 20.0826 289.832 17.8235 289.015C12.7262 287.065 7.52698 285.014 2.53164 282.59C2.33839 282.452 2.10667 282.377 1.869 282.377C1.63132 282.377 1.39961 282.452 1.20635 282.59C1.17268 282.888 1.17268 283.19 1.20635 283.488C1.5624 284.716 1.72856 285.991 1.69909 287.269C1.69909 289.405 1.51219 291.524 1.41024 293.643C1.3083 295.762 1.1214 298.119 1.08742 300.424C1.0129 302.515 1.46876 304.591 2.41271 306.46C3.19429 307.951 4.1118 309.443 4.94436 310.85C6.19091 312.655 6.98885 314.729 7.27211 316.903C7.45901 318.479 7.73087 320.039 7.90078 321.616C8.06917 323.195 8.53007 324.73 9.26005 326.142C9.93268 327.616 10.9617 328.901 12.2547 329.88C13.5477 330.86 15.0642 331.503 16.6681 331.753C20.3904 332.374 24.1592 332.675 27.9331 332.652C30.5625 332.616 33.1835 332.959 35.7149 333.669C35.9602 333.801 36.1934 333.954 36.4115 334.127L35.7319 334.229C32.5206 334.585 29.3263 334.991 26.0981 335.263C24.2499 335.432 22.3901 335.432 20.542 335.263C18.1772 335.11 15.8958 334.332 13.9326 333.008C13.7117 332.838 13.3549 332.872 13.049 332.822C12.8961 333.567 13.3719 333.957 13.6607 334.381C14.918 336.195 16.1923 337.975 17.6026 339.671H88.4717C91.1932 337.99 93.6209 335.877 95.6589 333.415Z" fill="#4DAF19"/>
<path d="M130.83 144.457C127.244 144.448 123.738 145.52 120.774 147.534C117.809 149.548 115.524 152.409 114.218 155.741C112.911 159.074 112.645 162.723 113.454 166.209C114.263 169.695 116.109 172.856 118.75 175.277C117.735 176.208 116.662 177.074 115.538 177.871C113.601 179.193 111.953 180.244 109.863 181.889C107.179 183.853 104.876 186.289 103.067 189.077C101.911 190.901 101.244 192.991 101.13 195.146C101.054 196.234 101.225 197.326 101.631 198.338C102.037 199.351 102.668 200.259 103.475 200.995C104.487 199.678 105.813 198.635 107.332 197.96C108.555 197.384 109.575 197.113 110.73 196.672C113.453 195.695 116 194.287 118.274 192.501C121.39 190.134 123.669 186.839 124.781 183.093C125.135 181.795 125.289 180.452 125.24 179.109C127.692 179.925 130.292 180.2 132.861 179.914C135.43 179.628 137.906 178.788 140.117 177.452C142.328 176.116 144.221 174.317 145.666 172.178C147.11 170.039 148.071 167.613 148.482 165.066C148.893 162.52 148.743 159.915 148.044 157.432C147.346 154.949 146.114 152.648 144.435 150.687C142.755 148.726 140.669 147.154 138.32 146.078C135.971 145.002 133.415 144.449 130.83 144.457Z" fill="#B26E36"/>
<path d="M151.831 195.519C148.586 193.72 145.732 191.295 143.437 188.384C141.141 185.473 139.449 182.136 138.459 178.566L129.556 176.735C125.971 198.994 116.252 190.298 114.4 205.555C112.599 220.542 116.847 241.258 116.847 241.258L147.6 240.75C147.6 240.75 162.773 201.436 151.831 195.519Z" fill="url(#paint0_linear)"/>
<path d="M121.842 157.85C122.043 157.934 122.236 158.036 122.42 158.155C122.216 153.815 122.589 149.678 124.119 147.44C128.672 140.88 142.809 140.659 147.634 151.153C152.459 161.647 149.996 177.786 145.578 180.227C143.08 181.618 136.692 180.736 131.765 178.532C129.811 177.657 128.08 176.353 126.7 174.718C125.32 173.083 124.328 171.16 123.796 169.089C121.72 168.723 119.862 167.584 118.597 165.902C116.473 162.749 117.713 155.968 121.842 157.85Z" fill="#FFD19F"/>
<path d="M111.97 293.423C111.97 293.423 108.402 266.162 116.846 241.14L147.6 240.631C154.992 251.619 158.812 264.612 158.542 277.843C158.304 300.475 154.668 339.162 154.872 342.976C154.872 342.976 162.569 349.588 164.795 351.877C167.021 354.165 156.299 354.403 146.343 346.57C146.343 346.57 141.67 313.376 143.403 301.102L134.908 261.67C134.734 267.628 133.92 273.55 132.478 279.335C124.407 311.546 98.4963 330.686 96.4914 333.822C96.4914 333.822 98.7002 343.994 99.108 347.215C99.5158 350.436 90.9014 343.824 87.6561 331.228C87.5881 331.228 103.39 302.001 111.97 293.423Z" fill="#004699"/>
<path d="M134.84 261.873C134.791 261.874 134.744 261.857 134.707 261.826C134.669 261.795 134.644 261.752 134.636 261.704C134.628 261.677 134.627 261.648 134.632 261.621C134.637 261.593 134.648 261.567 134.664 261.544C134.68 261.521 134.701 261.502 134.726 261.489C134.751 261.476 134.778 261.468 134.806 261.466C138.021 260.91 141.104 259.76 143.896 258.076C143.915 258.057 143.938 258.042 143.962 258.031C143.987 258.021 144.014 258.016 144.041 258.016C144.068 258.016 144.094 258.021 144.119 258.031C144.144 258.042 144.166 258.057 144.185 258.076C144.225 258.117 144.247 258.171 144.247 258.228C144.247 258.285 144.225 258.34 144.185 258.381C141.342 260.088 138.2 261.239 134.925 261.771L134.84 261.873Z" fill="black"/>
<path d="M136.08 261.636C136.024 261.624 135.976 261.59 135.944 261.543C135.912 261.495 135.9 261.438 135.91 261.382C136.928 256.649 136.928 251.755 135.91 247.022C135.906 246.97 135.92 246.917 135.951 246.875C135.982 246.832 136.027 246.801 136.079 246.789C136.13 246.777 136.184 246.783 136.231 246.807C136.278 246.832 136.315 246.872 136.335 246.921C137.363 251.721 137.363 256.683 136.335 261.483C136.316 261.534 136.281 261.576 136.235 261.604C136.188 261.632 136.134 261.643 136.08 261.636Z" fill="black"/>
<path d="M139.41 260.686C139.357 260.667 139.314 260.628 139.288 260.578C139.263 260.527 139.258 260.469 139.275 260.415C140.789 255.845 140.681 250.895 138.969 246.395C138.958 246.37 138.952 246.342 138.952 246.314C138.953 246.287 138.958 246.259 138.969 246.234C138.981 246.208 138.997 246.186 139.017 246.167C139.037 246.148 139.061 246.133 139.088 246.124C139.112 246.112 139.139 246.106 139.166 246.105C139.193 246.104 139.22 246.108 139.245 246.118C139.27 246.127 139.293 246.142 139.313 246.16C139.333 246.179 139.348 246.201 139.359 246.226C141.102 250.825 141.21 255.882 139.665 260.551C139.66 260.578 139.649 260.603 139.632 260.625C139.616 260.648 139.594 260.666 139.57 260.679C139.546 260.692 139.519 260.699 139.491 260.7C139.464 260.702 139.436 260.697 139.41 260.686Z" fill="black"/>
<path d="M147.821 344.248C147.769 344.245 147.719 344.226 147.679 344.192C147.639 344.158 147.611 344.112 147.6 344.061C145.476 328.176 144.661 309.443 145.765 301.441C146.869 293.44 137.966 261.788 137.864 261.483C137.849 261.427 137.856 261.367 137.885 261.316C137.913 261.265 137.961 261.228 138.017 261.212C138.044 261.204 138.072 261.202 138.1 261.206C138.127 261.21 138.154 261.219 138.178 261.233C138.202 261.248 138.222 261.267 138.239 261.289C138.255 261.312 138.266 261.337 138.272 261.365C138.646 262.67 147.311 293.372 146.19 301.492C145.068 309.613 145.901 328.159 148.025 344.011C148.03 344.039 148.029 344.067 148.022 344.095C148.015 344.122 148.002 344.148 147.984 344.171C147.967 344.193 147.945 344.211 147.919 344.225C147.894 344.238 147.866 344.246 147.838 344.248H147.821Z" fill="black"/>
<path d="M90.4766 330.465H90.3577C90.3387 330.446 90.3236 330.424 90.3133 330.399C90.303 330.374 90.2977 330.348 90.2977 330.321C90.2977 330.294 90.303 330.268 90.3133 330.243C90.3236 330.218 90.3387 330.196 90.3577 330.177C107.349 299.797 114.145 295.525 115.368 294.982C113.193 276.877 114.876 263.992 116.677 256.347C117.559 252.012 119.076 247.831 121.179 243.937C121.198 243.918 121.221 243.903 121.245 243.893C121.27 243.882 121.297 243.877 121.324 243.877C121.35 243.877 121.377 243.882 121.402 243.893C121.427 243.903 121.449 243.918 121.468 243.937C121.487 243.956 121.502 243.978 121.512 244.003C121.523 244.028 121.528 244.054 121.528 244.081C121.528 244.108 121.523 244.134 121.512 244.159C121.502 244.184 121.487 244.206 121.468 244.225C119.389 248.095 117.889 252.247 117.016 256.55C115.232 264.162 113.618 277.046 115.742 295.169C115.744 295.217 115.731 295.265 115.703 295.305C115.675 295.345 115.635 295.374 115.589 295.389C115.589 295.389 113.89 295.983 109.999 300.611C106.414 304.849 100.161 313.478 90.6465 330.448C90.6216 330.464 90.5932 330.474 90.5636 330.477C90.5341 330.48 90.5043 330.476 90.4766 330.465Z" fill="black"/>
<path d="M151.831 195.519C155.416 197.367 161.737 196.163 164.727 222.864C166.766 241.224 175.924 247.836 180.155 254.838C184.386 261.839 183.417 268.4 181.48 269.214C179.543 270.028 177.827 263.111 173.97 260.585C173.937 262.185 173.726 263.777 173.342 265.332C172.781 266.908 169.264 258.839 170.572 254.465C170.572 254.465 159.052 241.411 155.433 232.544C151.814 223.678 148.263 193.654 151.831 195.519Z" fill="url(#paint1_linear)"/>
<path d="M154.872 342.976C154.872 342.976 162.569 349.588 164.795 351.877C167.021 354.165 156.3 354.403 146.343 346.57L145.935 343.536C155.127 346.316 154.872 342.976 154.872 342.976Z" fill="#6BA5F2"/>
<path d="M96.4237 333.822C96.4237 333.822 98.6325 343.994 99.0403 347.215C99.448 350.436 90.8336 343.824 87.5884 331.228C87.5884 331.228 88.217 330.058 89.2875 328.159C93.858 336.873 96.4237 333.822 96.4237 333.822Z" fill="#6BA5F2"/>
<path d="M98.7341 220.389C101.283 209.98 106.023 196.197 121.434 194.383C122.368 193.663 123.243 192.869 124.051 192.01C127.874 195.299 129.895 202.012 129.895 202.012C135.265 200.503 147.821 201.147 147.821 201.147C147.635 197.914 147.105 194.708 146.241 191.586C148.013 193.321 150.02 194.799 152.205 195.977C155.603 197.774 161.77 196.689 164.846 221.22C161.741 223.963 158.043 225.954 154.04 227.035C153.802 226.085 153.598 225.085 153.377 224.068C151.874 229.809 150.071 235.468 147.974 241.021C147.974 241.021 146.088 246.632 135.231 247.311C128.719 247.679 122.302 245.625 117.22 241.547C115.767 234.014 114.841 226.389 114.451 218.728C113.193 220.949 111.817 223.339 110.271 225.899C106.607 223.705 102.745 221.86 98.7341 220.389Z" fill="#1F69B2"/>
<path d="M181.48 269.4C181.454 269.403 181.428 269.399 181.403 269.391C181.379 269.383 181.356 269.369 181.337 269.352C181.317 269.334 181.302 269.313 181.292 269.289C181.281 269.265 181.276 269.24 181.276 269.214C181.057 266.586 180.287 264.033 179.016 261.72C178.984 261.686 178.966 261.64 178.966 261.593C178.966 261.546 178.984 261.501 179.016 261.466C179.051 261.434 179.096 261.416 179.144 261.416C179.191 261.416 179.237 261.434 179.271 261.466C180.573 263.83 181.361 266.441 181.582 269.129C181.582 269.18 181.563 269.229 181.528 269.267C181.494 269.305 181.446 269.328 181.395 269.332L181.48 269.4Z" fill="#E08451"/>
<path d="M183.043 266.162C183 266.16 182.958 266.144 182.925 266.117C182.891 266.089 182.867 266.052 182.856 266.01C182.486 263.96 181.756 261.991 180.699 260.195C180.68 260.177 180.665 260.156 180.655 260.133C180.645 260.11 180.64 260.085 180.64 260.059C180.64 260.034 180.645 260.009 180.655 259.985C180.665 259.962 180.68 259.941 180.699 259.924C180.716 259.905 180.737 259.89 180.76 259.88C180.784 259.87 180.809 259.865 180.834 259.865C180.86 259.865 180.885 259.87 180.908 259.88C180.932 259.89 180.953 259.905 180.97 259.924C182.059 261.766 182.813 263.786 183.196 265.891C183.201 265.917 183.2 265.943 183.194 265.969C183.188 265.994 183.177 266.018 183.161 266.039C183.145 266.06 183.124 266.077 183.101 266.09C183.078 266.102 183.053 266.11 183.026 266.111L183.043 266.162Z" fill="#E08451"/>
<path d="M125.325 161.884C127.111 159.782 128.286 157.231 128.723 154.51C131.897 153.639 135.189 153.278 138.476 153.442C138.341 151.495 138.023 149.565 137.524 147.678C138.847 149.311 139.745 151.244 140.141 153.306C142.311 153.228 144.475 153.597 146.496 154.391C146.207 152.65 145.584 150.98 144.661 149.475C146.15 150.946 147.238 152.772 147.821 154.781C148.348 154.97 148.837 155.251 149.265 155.612C148.887 154.077 148.358 152.584 147.685 151.153C142.724 140.71 128.723 140.88 124.187 147.491C122.589 149.78 122.233 153.866 122.487 158.206C123.77 159.132 124.755 160.41 125.325 161.884Z" fill="#B26E36"/>
<path d="M112.225 153.73C111.495 148.878 112.695 143.934 115.569 139.952C118.442 135.971 122.761 133.268 127.605 132.421C132.448 131.573 137.431 132.648 141.491 135.417C145.551 138.185 148.365 142.427 149.333 147.237" fill="#FFB300"/>
<path d="M150.862 146.966L110.696 154.001C110.506 154.031 110.324 154.1 110.161 154.203C109.999 154.306 109.859 154.441 109.751 154.6C109.643 154.758 109.568 154.938 109.532 155.126C109.496 155.315 109.499 155.509 109.541 155.696C109.573 155.885 109.643 156.065 109.747 156.226C109.851 156.387 109.986 156.525 110.145 156.633C110.303 156.741 110.482 156.815 110.67 156.852C110.858 156.89 111.052 156.889 111.24 156.849L151.423 149.797C151.768 149.709 152.068 149.495 152.261 149.196C152.454 148.897 152.527 148.537 152.464 148.187C152.402 147.837 152.209 147.523 151.924 147.309C151.64 147.095 151.285 146.997 150.93 147.034L150.862 146.966Z" fill="#DB8200"/>
<path d="M141.177 148.661L144.576 148.051C143.743 143.62 141.316 139.647 137.752 136.877C134.188 134.108 129.732 132.733 125.223 133.013C124.628 133.2 124.051 133.403 123.524 133.624C127.745 133.741 131.799 135.297 135.011 138.033C138.223 140.769 140.399 144.52 141.177 148.661Z" fill="#DB8200"/>
<path d="M152.307 215.846L79.6874 242.767C76.8771 240.212 73.3847 238.523 69.6328 237.906C65.881 237.29 62.0303 237.771 58.5468 239.292C55.0632 240.813 52.096 243.308 50.004 246.476C47.912 249.644 46.7849 253.349 46.759 257.143L59.0605 252.6L63.9369 265.688L51.6354 270.248C54.1382 273.108 57.4183 275.182 61.0783 276.219C64.7384 277.257 68.6215 277.213 72.2572 276.093C75.8929 274.974 79.1253 272.827 81.5628 269.912C84.0004 266.997 85.5386 263.439 85.9911 259.669L158.593 232.748C160.846 231.916 162.676 230.225 163.68 228.048C164.684 225.87 164.779 223.383 163.945 221.135C163.112 218.887 161.417 217.061 159.234 216.06C157.052 215.058 154.56 214.963 152.307 215.795V215.846ZM155.382 228.306C154.686 228.565 153.928 228.612 153.206 228.441C152.483 228.271 151.827 227.89 151.321 227.347C150.815 226.804 150.482 226.124 150.364 225.392C150.245 224.66 150.347 223.91 150.656 223.236C150.965 222.562 151.468 221.995 152.101 221.606C152.733 221.217 153.467 221.024 154.209 221.052C154.951 221.079 155.669 221.325 156.271 221.76C156.873 222.194 157.332 222.797 157.591 223.492C157.937 224.422 157.899 225.452 157.485 226.355C157.071 227.258 156.314 227.96 155.382 228.306Z" fill="#777777"/>
<path d="M96.5085 227.713C94.0958 236.494 104.002 254.566 105.191 255.55C106.288 257.661 107.501 259.71 108.827 261.687C113.584 268.332 120.058 270.163 121.519 268.603C122.98 267.044 117.356 262.839 116.575 258.313C118.056 258.913 119.601 259.346 121.179 259.601C122.878 259.737 114.825 252.244 110.271 251.701C108.028 239.139 105.174 233.053 109.778 225.678L109.897 225.492C106.234 223.283 102.372 221.421 98.3605 219.931C97.6299 222.932 97.0692 225.645 96.5085 227.713Z" fill="url(#paint2_linear)"/>
<path d="M121.06 193.909C120.194 194.01 119.361 194.163 118.58 194.332L118.036 194.468C117.289 194.645 116.552 194.86 115.827 195.112H115.572C114.927 195.35 114.315 195.621 113.72 195.892L113.296 196.112C112.667 196.418 112.055 196.774 111.478 197.13L111.155 197.35C110.645 197.689 110.152 198.045 109.693 198.418L109.388 198.655C108.861 199.079 108.368 199.537 107.892 199.995L107.587 200.317C107.179 200.741 106.771 201.198 106.38 201.656L106.21 201.86C105.786 202.368 105.395 202.911 105.004 203.453L104.749 203.843C104.375 204.369 104.036 204.928 103.696 205.538C103.356 206.115 103.05 206.708 102.744 207.234L102.54 207.641C102.251 208.234 101.963 208.827 101.708 209.438C101.698 209.494 101.698 209.551 101.708 209.607C101.453 210.183 101.232 210.76 101.011 211.302L100.858 211.675C100.637 212.286 100.416 212.913 100.213 213.523C100.213 213.523 100.213 213.693 100.128 213.778C99.9407 214.354 99.7538 214.93 99.5839 215.473C99.5839 215.473 99.5839 215.659 99.5839 215.744C99.397 216.371 99.2271 216.999 99.0572 217.609V217.846C98.8873 218.457 98.7343 219.067 98.5814 219.66C102.526 221.244 106.315 223.19 109.897 225.475C110.662 224.187 111.41 222.949 112.106 221.745L113.431 219.44C123.898 201.029 124.679 193.485 121.06 193.909Z" fill="#1F69B2"/>
<path d="M121.876 267.858C121.847 267.874 121.815 267.883 121.782 267.883C121.75 267.883 121.717 267.874 121.689 267.858C118.496 266.902 115.704 264.931 113.737 262.246C113.719 262.229 113.704 262.208 113.694 262.184C113.684 262.161 113.679 262.136 113.679 262.11C113.679 262.085 113.684 262.06 113.694 262.037C113.704 262.013 113.719 261.992 113.737 261.975C113.772 261.943 113.817 261.925 113.865 261.925C113.912 261.925 113.957 261.943 113.992 261.975C115.914 264.583 118.633 266.499 121.74 267.434C121.788 267.449 121.829 267.482 121.854 267.526C121.879 267.57 121.887 267.622 121.876 267.671V267.858Z" fill="#E08451"/>
<path d="M119.531 269.197C119.5 269.213 119.465 269.222 119.429 269.222C119.394 269.222 119.359 269.213 119.327 269.197C119.073 269.078 113.16 266.518 111.495 263.399C111.461 263.362 111.443 263.313 111.443 263.263C111.443 263.213 111.461 263.165 111.495 263.128C111.532 263.094 111.58 263.076 111.63 263.076C111.681 263.076 111.729 263.094 111.766 263.128C113.465 266.128 119.344 268.722 119.412 268.756C119.458 268.778 119.494 268.816 119.513 268.863C119.531 268.91 119.532 268.963 119.514 269.01L119.531 269.197Z" fill="#E08451"/>
<path d="M120.33 209.641C120.305 209.63 120.283 209.614 120.264 209.595C120.246 209.575 120.231 209.552 120.222 209.527C120.212 209.501 120.208 209.475 120.209 209.448C120.21 209.421 120.216 209.394 120.228 209.37C121.269 207.218 121.81 204.859 121.81 202.47C121.81 200.08 121.269 197.722 120.228 195.57C120.203 195.52 120.198 195.463 120.213 195.409C120.229 195.356 120.265 195.31 120.313 195.282C120.332 195.263 120.354 195.248 120.379 195.237C120.404 195.227 120.43 195.222 120.457 195.222C120.484 195.222 120.51 195.227 120.535 195.237C120.56 195.248 120.583 195.263 120.601 195.282C121.672 197.495 122.227 199.92 122.227 202.377C122.227 204.833 121.672 207.259 120.601 209.471C120.582 209.526 120.545 209.573 120.496 209.604C120.446 209.635 120.388 209.648 120.33 209.641Z" fill="black"/>
<path d="M154.074 213.167C154.047 213.163 154.021 213.154 153.998 213.139C153.974 213.125 153.954 213.106 153.938 213.084C153.923 213.062 153.911 213.037 153.905 213.011C153.899 212.984 153.899 212.957 153.904 212.93C154.345 209.917 154.345 206.856 153.904 203.843C153.896 203.815 153.895 203.786 153.899 203.757C153.904 203.729 153.915 203.702 153.931 203.678C153.947 203.653 153.968 203.633 153.993 203.618C154.017 203.602 154.045 203.593 154.074 203.589C154.101 203.584 154.128 203.584 154.155 203.59C154.181 203.596 154.206 203.608 154.229 203.623C154.251 203.639 154.27 203.659 154.284 203.682C154.298 203.706 154.308 203.731 154.312 203.758C154.784 206.82 154.784 209.936 154.312 212.998C154.308 213.025 154.298 213.05 154.284 213.073C154.27 213.097 154.251 213.117 154.229 213.133C154.206 213.148 154.181 213.16 154.155 213.165C154.128 213.171 154.101 213.172 154.074 213.167Z" fill="black"/>
<path d="M153.53 347.249C153.481 347.268 153.426 347.268 153.377 347.249C153.338 347.207 153.316 347.153 153.316 347.096C153.316 347.039 153.338 346.984 153.377 346.943C154.539 345.903 156.03 345.303 157.591 345.248C157.645 345.248 157.697 345.269 157.735 345.308C157.773 345.346 157.795 345.398 157.795 345.452C157.797 345.48 157.794 345.508 157.784 345.535C157.775 345.561 157.76 345.586 157.741 345.606C157.722 345.627 157.699 345.644 157.673 345.655C157.647 345.666 157.619 345.672 157.591 345.672C156.126 345.769 154.739 346.368 153.666 347.367C153.635 347.36 153.606 347.346 153.583 347.325C153.559 347.305 153.541 347.278 153.53 347.249Z" fill="black"/>
<path d="M155.552 348.961C155.502 348.974 155.449 348.974 155.399 348.961C155.363 348.918 155.343 348.864 155.343 348.808C155.343 348.752 155.363 348.698 155.399 348.656C156.567 347.614 158.064 347.014 159.63 346.96C159.658 346.96 159.686 346.966 159.712 346.977C159.738 346.989 159.761 347.005 159.78 347.026C159.799 347.046 159.814 347.071 159.823 347.098C159.832 347.124 159.836 347.153 159.834 347.181C159.834 347.235 159.812 347.286 159.774 347.325C159.736 347.363 159.684 347.384 159.63 347.384C158.165 347.481 156.778 348.08 155.705 349.079C155.64 349.062 155.585 349.019 155.552 348.961Z" fill="black"/>
<path d="M97.2392 338.01C97.184 338.028 97.1245 338.028 97.0693 338.01C97.0693 338.01 96.2877 337.06 93.3653 337.755C93.3385 337.763 93.3104 337.765 93.2828 337.761C93.2552 337.758 93.2286 337.748 93.2048 337.734C93.1809 337.72 93.1602 337.701 93.144 337.678C93.1277 337.656 93.1163 337.63 93.1104 337.603C93.0998 337.576 93.0955 337.547 93.0978 337.519C93.1001 337.49 93.109 337.462 93.1238 337.438C93.1386 337.413 93.1589 337.392 93.1831 337.377C93.2073 337.361 93.2348 337.351 93.2633 337.348C96.5256 336.568 97.3921 337.705 97.4261 337.755C97.4621 337.798 97.4818 337.852 97.4818 337.908C97.4818 337.964 97.4621 338.018 97.4261 338.061L97.2392 338.01Z" fill="black"/>
<path d="M97.7657 340.163C97.7322 340.167 97.6981 340.162 97.6678 340.147C97.6375 340.131 97.6125 340.108 97.5958 340.078C97.5958 340.078 96.7973 339.128 93.8748 339.824C93.848 339.831 93.82 339.833 93.7924 339.83C93.7647 339.826 93.7382 339.817 93.7143 339.802C93.6904 339.788 93.6697 339.769 93.6535 339.746C93.6373 339.724 93.6259 339.698 93.62 339.671C93.6098 339.615 93.6219 339.557 93.6536 339.51C93.6852 339.462 93.7341 339.429 93.7899 339.417C97.0351 338.636 97.9017 339.79 97.9356 339.841C97.9547 339.86 97.9697 339.882 97.98 339.907C97.9903 339.932 97.9956 339.958 97.9956 339.985C97.9956 340.012 97.9903 340.038 97.98 340.063C97.9697 340.088 97.9547 340.11 97.9356 340.129L97.7657 340.163Z" fill="black"/>
<path d="M141.297 181.109C138.569 181.001 135.879 180.428 133.345 179.414C133.317 179.405 133.29 179.39 133.269 179.369C133.247 179.349 133.229 179.325 133.218 179.297C133.207 179.27 133.202 179.24 133.203 179.21C133.204 179.181 133.212 179.152 133.226 179.125C133.252 179.075 133.296 179.036 133.35 179.017C133.404 178.998 133.463 179 133.515 179.024C135.993 180.026 138.625 180.6 141.297 180.719C141.355 180.719 141.411 180.742 141.453 180.784C141.494 180.825 141.518 180.881 141.518 180.939C141.506 180.989 141.478 181.032 141.437 181.063C141.397 181.094 141.347 181.11 141.297 181.109Z" fill="black"/>
<path d="M462.714 143.507C462.714 143.507 475.372 142.032 480.469 147.118C485.567 152.204 488.642 165.055 484.615 175.057C480.588 185.059 491.038 195.553 492.737 205.131C494.436 214.71 488.234 219.982 481.625 220.711C475.015 221.44 464.736 217.761 456.41 218.321C448.085 218.88 437.516 210.811 447.507 193.163C457.498 175.515 443.463 148.034 462.714 143.507Z" fill="#B26E36"/>
<path d="M446.861 195.519C450.106 193.72 452.96 191.295 455.256 188.384C457.552 185.473 459.244 182.136 460.233 178.566L468.831 178.108C472.416 200.351 482.423 190.213 484.292 205.47C486.094 220.457 481.846 241.174 481.846 241.174L451.092 240.665C451.092 240.665 435.851 201.436 446.861 195.519Z" fill="url(#paint3_linear)"/>
<path d="M476.714 158.036C476.52 158.13 476.333 158.238 476.154 158.358C476.154 154.018 475.729 149.882 474.081 147.695C469.323 141.286 455.272 141.558 450.684 152.119C446.097 162.681 449.155 178.82 453.624 181.126C456.172 182.448 462.527 181.363 467.386 179.024C469.313 178.09 471.004 176.734 472.334 175.058C473.663 173.383 474.597 171.429 475.066 169.344C477.129 168.885 478.946 167.676 480.163 165.953C482.236 162.749 480.843 156.052 476.714 158.036Z" fill="#FFD19F"/>
<path d="M486.603 293.423C486.603 293.423 490.154 266.213 481.71 241.14L450.956 240.631C443.59 251.628 439.788 264.619 440.065 277.843C440.303 300.475 443.956 339.162 443.752 342.976C443.752 342.976 436.055 349.588 433.812 351.877C431.57 354.165 442.308 354.403 452.264 346.57C452.264 346.57 456.937 313.376 455.221 301.102L463.716 261.67C463.881 267.629 464.696 273.552 466.146 279.335C474.2 311.546 500.128 330.686 502.133 333.822C502.133 333.822 499.924 343.994 499.516 347.215C499.108 350.436 507.723 343.824 510.968 331.228C510.985 331.228 495.167 302.001 486.603 293.423Z" fill="#6BA5F2"/>
<path d="M450.514 193.027C445.876 194.061 433.523 196.875 413.457 209.268L402.838 193.264C403.602 188.721 400.034 179.702 399.015 181.041C397.995 182.381 399.134 185.788 399.134 185.788C395.039 183.669 392.677 177.023 390.808 177.956C388.939 178.888 389.874 189.094 397.129 195.706C397.129 195.706 405.709 224.78 414.952 222.186C423.074 219.898 435.596 215.981 443.531 214.167C455.204 211.54 450.514 193.027 450.514 193.027Z" fill="url(#paint4_linear)"/>
<path d="M509.116 332.618C509.077 332.618 509.038 332.607 509.005 332.586C508.972 332.565 508.945 332.535 508.929 332.499C500.671 316.716 483.137 293.982 482.95 293.762C482.938 293.735 482.931 293.706 482.931 293.677C482.931 293.648 482.938 293.619 482.95 293.592C486.348 270.943 478.209 241.53 478.125 241.241C478.108 241.187 478.113 241.129 478.138 241.079C478.164 241.028 478.207 240.989 478.26 240.97C478.317 240.955 478.377 240.962 478.428 240.99C478.479 241.019 478.517 241.067 478.532 241.123C478.617 241.411 486.705 270.841 483.375 293.575C484.445 294.982 501.232 317.021 509.303 332.279C509.328 332.329 509.333 332.386 509.317 332.44C509.301 332.493 509.266 332.539 509.218 332.567L509.116 332.618Z" fill="black"/>
<path d="M463.733 261.873C463.733 261.873 457.803 260.89 454.762 260.178L451.704 259.415C451.65 259.402 451.603 259.367 451.574 259.319C451.546 259.272 451.537 259.215 451.551 259.161C451.564 259.107 451.599 259.06 451.647 259.032C451.694 259.003 451.752 258.995 451.806 259.008L454.864 259.754C457.888 260.517 463.733 261.449 463.801 261.449C463.828 261.453 463.854 261.463 463.877 261.477C463.901 261.491 463.921 261.51 463.936 261.532C463.952 261.554 463.964 261.579 463.969 261.606C463.975 261.633 463.976 261.66 463.971 261.687C463.969 261.715 463.961 261.743 463.948 261.768C463.935 261.793 463.916 261.815 463.894 261.833C463.871 261.85 463.845 261.863 463.818 261.87C463.79 261.877 463.761 261.878 463.733 261.873Z" fill="black"/>
<path d="M462.646 261.704C462.59 261.704 462.536 261.683 462.495 261.645C462.454 261.607 462.429 261.556 462.425 261.5C461.802 254.561 462.168 247.569 463.512 240.733C463.531 240.682 463.567 240.64 463.613 240.612C463.659 240.584 463.714 240.573 463.767 240.58C463.823 240.592 463.872 240.626 463.904 240.673C463.935 240.721 463.947 240.778 463.937 240.834C462.588 247.607 462.222 254.539 462.85 261.415C462.855 261.443 462.854 261.47 462.847 261.497C462.839 261.524 462.827 261.549 462.809 261.57C462.791 261.591 462.768 261.608 462.743 261.619C462.718 261.631 462.691 261.636 462.663 261.636L462.646 261.704Z" fill="black"/>
<path d="M459.469 261.076C459.423 261.075 459.379 261.06 459.342 261.032C459.306 261.005 459.279 260.967 459.265 260.924C459.265 260.924 456.852 253.651 459.656 240.58C459.668 240.524 459.701 240.476 459.749 240.444C459.796 240.413 459.854 240.4 459.91 240.411C459.963 240.426 460.008 240.461 460.036 240.508C460.064 240.555 460.074 240.611 460.063 240.665C457.294 253.668 459.639 260.771 459.673 260.839C459.683 260.866 459.688 260.894 459.687 260.923C459.685 260.951 459.678 260.979 459.665 261.005C459.652 261.031 459.634 261.053 459.612 261.071C459.59 261.089 459.564 261.103 459.537 261.11L459.469 261.076Z" fill="black"/>
<path d="M450.022 345.095C449.993 345.094 449.966 345.086 449.942 345.073C449.917 345.059 449.896 345.04 449.879 345.018C449.863 344.995 449.852 344.969 449.847 344.941C449.842 344.913 449.844 344.885 449.852 344.858C452.381 329.666 453.247 314.244 452.434 298.865C453.624 292.083 460.828 261.941 460.93 261.568C460.946 261.515 460.98 261.471 461.028 261.443C461.075 261.414 461.131 261.405 461.185 261.415C461.213 261.419 461.241 261.428 461.265 261.444C461.289 261.459 461.309 261.48 461.324 261.505C461.339 261.529 461.348 261.557 461.35 261.586C461.352 261.614 461.348 261.643 461.337 261.67C461.337 261.975 454.065 292.083 452.842 298.814C453.662 314.227 452.796 329.683 450.259 344.909C450.251 344.964 450.222 345.015 450.178 345.049C450.133 345.084 450.078 345.1 450.022 345.095Z" fill="black"/>
<path d="M474.047 147.695C469.289 141.286 455.238 141.558 450.65 152.119C449.861 154.056 449.291 156.075 448.951 158.138C449.893 156.08 451.074 154.14 452.468 152.357C452.842 154.476 454.337 157.714 459.961 158.714C459.391 156.78 459.076 154.779 459.027 152.764C460.063 154.798 463.003 158.748 470.292 159.223C469.677 158.412 469.163 157.53 468.763 156.595C470.462 157.07 471.668 157.29 471.668 157.29C472.014 159.092 472.474 160.87 473.044 162.613C474.353 160.528 475.831 158.578 475.831 158.578L476.154 158.341C476.222 154.001 475.746 149.932 474.047 147.695Z" fill="#B26E36"/>
<path d="M509.235 328.058C510.339 330.024 510.934 331.228 510.934 331.228C507.689 343.756 499.04 350.47 499.482 347.215C499.924 343.96 502.099 333.822 502.099 333.822C502.099 333.822 504.036 337.551 509.235 328.058Z" fill="#004699"/>
<path d="M452.621 343.57L452.213 346.57C442.291 354.403 431.535 354.182 433.761 351.877C435.987 349.571 443.701 342.976 443.701 342.976C443.701 342.976 439.164 348.995 452.621 343.57Z" fill="#004699"/>
<path d="M498.598 206.725C498.87 207.081 499.143 207.454 499.398 207.827C499.143 207.454 498.87 207.081 498.598 206.725Z" fill="url(#paint5_linear)"/>
<path d="M484.598 214.184C486.161 216.038 487.945 217.999 489.95 220.067C487.945 217.999 486.161 216.038 484.598 214.184Z" fill="url(#paint6_linear)"/>
<path d="M476.324 194.502C485.567 193.637 493.179 199.435 498.599 206.725C493.263 199.435 486.433 193.553 477.207 194.417C476.816 194.163 476.018 193.569 475.644 193.264C472.535 196.095 459.129 207.251 452.162 196.553C451.486 195.434 450.917 194.253 450.463 193.027C443.551 194.569 436.841 196.901 430.465 199.978C429.493 202.819 429.313 205.87 429.944 208.806C430.576 211.741 431.995 214.45 434.05 216.643C437.448 215.676 440.762 214.812 443.48 214.184C445.176 223.199 447.66 232.049 450.905 240.631C450.905 240.631 450.599 245.92 462.102 246.124C468.953 246.261 475.713 244.538 481.659 241.14C483.387 232.253 484.353 223.235 484.547 214.184C474.047 201.741 473.248 194.79 476.324 194.502Z" fill="#2372D9"/>
<path d="M499.397 207.827C499.142 207.454 498.871 207.081 498.599 206.725C493.179 199.435 485.567 193.637 476.324 194.502C473.248 194.79 473.996 201.69 484.598 214.184C486.161 216.038 487.945 217.999 489.95 220.067C492.737 212.896 496.39 209.454 499.397 207.827Z" fill="#F69314"/>
<path d="M399.287 185.652C399.305 185.67 399.32 185.691 399.33 185.714C399.34 185.738 399.345 185.763 399.345 185.788C399.345 185.813 399.34 185.839 399.33 185.862C399.32 185.885 399.305 185.906 399.287 185.924C398.873 186.502 398.579 187.156 398.422 187.849C398.264 188.542 398.247 189.259 398.369 189.959C398.374 189.984 398.374 190.011 398.367 190.036C398.361 190.062 398.35 190.086 398.334 190.107C398.318 190.127 398.297 190.145 398.274 190.157C398.251 190.17 398.226 190.177 398.199 190.179C398.153 190.18 398.108 190.166 398.071 190.138C398.034 190.111 398.007 190.071 397.996 190.026C397.863 189.273 397.883 188.5 398.055 187.755C398.228 187.009 398.548 186.306 398.998 185.686C399.013 185.663 399.033 185.643 399.056 185.628C399.08 185.613 399.107 185.604 399.134 185.601C399.162 185.597 399.19 185.6 399.216 185.609C399.243 185.618 399.267 185.633 399.287 185.652Z" fill="#E08451"/>
<path d="M473.146 135.624C470.583 134.956 467.914 134.798 465.29 135.161C462.666 135.524 460.14 136.4 457.856 137.739C455.572 139.077 453.576 140.852 451.98 142.962C450.385 145.072 449.223 147.475 448.56 150.034L488.166 159.833C488.777 157.259 488.872 154.591 488.447 151.98C488.023 149.369 487.086 146.868 485.691 144.619C484.295 142.37 482.469 140.418 480.317 138.875C478.164 137.331 475.727 136.226 473.146 135.624Z" fill="#FFB300"/>
<path d="M489.814 160.24L446.861 149.627C446.657 149.552 446.44 149.521 446.223 149.537C446.007 149.552 445.796 149.613 445.605 149.717C445.413 149.82 445.247 149.962 445.115 150.135C444.983 150.307 444.89 150.506 444.842 150.717C444.793 150.928 444.79 151.147 444.833 151.36C444.876 151.572 444.963 151.773 445.09 151.949C445.217 152.125 445.38 152.272 445.568 152.381C445.756 152.489 445.965 152.556 446.182 152.577L489.067 163.173C489.266 163.24 489.478 163.265 489.688 163.246C489.897 163.228 490.101 163.166 490.286 163.066C490.471 162.965 490.633 162.827 490.762 162.661C490.891 162.495 490.984 162.304 491.036 162.1C491.088 161.897 491.096 161.684 491.062 161.477C491.028 161.27 490.951 161.072 490.836 160.895C490.721 160.719 490.571 160.568 490.396 160.453C490.22 160.337 490.022 160.259 489.814 160.223V160.24Z" fill="#DB8200"/>
<path d="M477.445 137.319C476.867 137.031 476.256 136.777 475.644 136.54C470.785 135.885 465.855 137.03 461.785 139.757C457.715 142.484 454.787 146.605 453.556 151.34L457.277 152.255C458.425 147.843 461.052 143.955 464.721 141.238C468.389 138.521 472.88 137.138 477.445 137.319Z" fill="#DB8200"/>
<path d="M509.201 258.466L484.513 239.631C482.364 237.991 479.772 237.029 477.071 236.867L479.076 234.257C479.34 233.903 479.455 233.462 479.398 233.025C479.341 232.589 479.116 232.191 478.77 231.917L475.27 229.256C474.916 228.993 474.474 228.877 474.036 228.934C473.598 228.991 473.2 229.216 472.925 229.561L466.384 238.037L461.66 244.191L455.119 252.668C454.857 253.023 454.745 253.466 454.805 253.903C454.865 254.34 455.094 254.736 455.442 255.007L458.942 257.669C459.295 257.927 459.734 258.039 460.167 257.982C460.601 257.925 460.996 257.704 461.27 257.364L463.275 254.736C464.143 257.297 465.758 259.54 467.913 261.178L492.618 280.013C493.826 280.929 495.349 281.33 496.853 281.126C498.357 280.923 499.718 280.132 500.638 278.928L510.288 266.332C511.165 265.136 511.541 263.647 511.338 262.179C511.135 260.712 510.369 259.38 509.201 258.466Z" fill="#0055FF"/>
<path d="M466.384 238.105L405.607 191.755L406.678 190.365C406.771 190.242 406.837 190.099 406.869 189.948C406.901 189.796 406.899 189.64 406.863 189.489C406.827 189.339 406.759 189.198 406.662 189.077C406.565 188.956 406.443 188.857 406.304 188.789L394.41 182.77L394.19 183.092L389.466 189.263L389.279 189.501L398.25 199.469C398.348 199.589 398.47 199.686 398.61 199.753C398.75 199.82 398.903 199.854 399.057 199.854C399.212 199.854 399.365 199.82 399.505 199.753C399.644 199.686 399.767 199.589 399.865 199.469L400.935 198.079L461.711 244.412L466.384 238.105Z" fill="#828282"/>
<path d="M501.93 260.764L481.788 245.405C480.573 244.478 478.835 244.71 477.906 245.922L477.824 246.03C476.895 247.243 477.127 248.977 478.342 249.904L498.484 265.263C499.699 266.19 501.437 265.958 502.366 264.745L502.449 264.638C503.377 263.425 503.145 261.691 501.93 260.764Z" fill="#0043AF"/>
<path d="M496.324 268.105L476.182 252.746C474.967 251.819 473.229 252.051 472.3 253.264L472.218 253.371C471.289 254.584 471.521 256.318 472.736 257.245L492.878 272.604C494.093 273.531 495.831 273.299 496.76 272.087L496.843 271.979C497.771 270.766 497.539 269.032 496.324 268.105Z" fill="#0043AF"/>
<path d="M507.791 228.425C507.553 223.746 504.562 215.185 499.397 207.827C496.39 209.522 492.771 212.913 489.95 220.084C492.023 222.22 494.317 224.475 496.9 226.865C496.317 235.99 496.362 245.143 497.035 254.261C493.637 257.279 491.242 267.976 492.55 266.942C493.704 265.834 494.73 264.6 495.608 263.263C497.545 267.434 495.336 274.13 497.307 274.537C499.278 274.944 503.696 269.824 503.832 261.653C503.798 259.278 503.633 256.906 503.339 254.549C503.832 253.058 508.249 237.512 507.791 228.425Z" fill="url(#paint7_linear)"/>
<path d="M499.397 207.827C499.142 207.454 498.871 207.081 498.599 206.725C493.179 199.435 485.567 193.637 476.324 194.502C473.248 194.79 473.996 201.69 484.598 214.184C486.161 216.038 487.945 217.999 489.95 220.067C492.737 212.896 496.39 209.454 499.397 207.827Z" fill="#2372D9"/>
<path d="M496.645 273.927H496.73C498.696 272.812 500.165 270.994 500.841 268.841C500.849 268.816 500.852 268.791 500.849 268.765C500.846 268.74 500.838 268.715 500.825 268.693C500.813 268.67 500.795 268.651 500.775 268.636C500.754 268.62 500.731 268.609 500.706 268.604C500.656 268.593 500.604 268.6 500.56 268.626C500.516 268.651 500.483 268.691 500.468 268.739C499.795 270.766 498.398 272.474 496.543 273.537C496.525 273.553 496.51 273.572 496.5 273.594C496.49 273.616 496.485 273.64 496.485 273.664C496.485 273.688 496.49 273.712 496.5 273.734C496.51 273.756 496.525 273.775 496.543 273.791C496.548 273.82 496.56 273.848 496.577 273.871C496.595 273.895 496.618 273.914 496.645 273.927Z" fill="#E08451"/>
<path d="M496.441 271.248C496.48 271.261 496.521 271.261 496.56 271.248C498.15 270.054 499.335 268.404 499.958 266.518C499.964 266.467 499.953 266.415 499.925 266.372C499.897 266.329 499.854 266.296 499.805 266.281C499.781 266.276 499.755 266.276 499.731 266.281C499.706 266.286 499.683 266.296 499.662 266.311C499.642 266.325 499.624 266.343 499.611 266.364C499.597 266.385 499.588 266.409 499.584 266.434C498.971 268.236 497.828 269.813 496.305 270.96C496.272 270.997 496.253 271.046 496.253 271.096C496.253 271.146 496.272 271.194 496.305 271.231C496.347 271.251 496.395 271.257 496.441 271.248Z" fill="#E08451"/>
<path d="M443.463 214.405C443.414 214.405 443.367 214.389 443.33 214.358C443.292 214.327 443.267 214.283 443.259 214.235C442.362 209.201 442.595 204.03 443.939 199.096C443.946 199.069 443.96 199.043 443.978 199.021C443.996 198.999 444.019 198.98 444.044 198.968C444.07 198.955 444.098 198.948 444.127 198.946C444.155 198.945 444.184 198.95 444.211 198.961C444.236 198.968 444.26 198.981 444.281 198.998C444.302 199.015 444.319 199.036 444.332 199.06C444.344 199.083 444.352 199.109 444.355 199.136C444.357 199.162 444.355 199.189 444.347 199.215C443.015 204.082 442.783 209.183 443.667 214.15C443.678 214.204 443.668 214.26 443.64 214.307C443.612 214.354 443.567 214.389 443.514 214.405H443.463Z" fill="black"/>
<path d="M481.557 210.624C481.517 210.625 481.479 210.613 481.446 210.592C481.413 210.571 481.386 210.541 481.37 210.506C478.362 204.335 480.877 196.35 480.911 196.265C480.919 196.239 480.932 196.216 480.949 196.195C480.966 196.174 480.987 196.157 481.01 196.144C481.034 196.132 481.06 196.124 481.087 196.121C481.113 196.119 481.14 196.122 481.166 196.129C481.219 196.149 481.263 196.188 481.288 196.238C481.313 196.288 481.318 196.347 481.302 196.401C481.302 196.485 478.821 204.301 481.744 210.319C481.758 210.343 481.766 210.37 481.769 210.397C481.771 210.425 481.767 210.453 481.757 210.479C481.748 210.505 481.732 210.528 481.712 210.548C481.692 210.567 481.668 210.582 481.642 210.59L481.557 210.624Z" fill="black"/>
<path d="M440.881 350.809C440.831 350.827 440.777 350.827 440.728 350.809C440.268 350.265 439.692 349.831 439.042 349.538C438.393 349.244 437.686 349.099 436.973 349.113C436.945 349.118 436.916 349.117 436.888 349.11C436.861 349.103 436.835 349.09 436.812 349.073C436.79 349.055 436.771 349.033 436.758 349.008C436.745 348.983 436.737 348.955 436.735 348.927C436.73 348.871 436.746 348.815 436.781 348.771C436.816 348.727 436.866 348.698 436.922 348.69C437.69 348.655 438.456 348.788 439.167 349.081C439.877 349.374 440.514 349.819 441.034 350.385C441.07 350.428 441.089 350.482 441.089 350.537C441.089 350.593 441.07 350.647 441.034 350.69C441.02 350.721 440.999 350.748 440.972 350.769C440.945 350.789 440.914 350.803 440.881 350.809Z" fill="black"/>
<path d="M442.834 349.113C442.784 349.126 442.732 349.126 442.681 349.113C442.225 348.57 441.652 348.136 441.005 347.843C440.358 347.549 439.654 347.404 438.943 347.418C438.915 347.426 438.885 347.427 438.856 347.422C438.827 347.416 438.8 347.404 438.777 347.385C438.754 347.367 438.735 347.344 438.723 347.317C438.71 347.29 438.704 347.261 438.706 347.232C438.701 347.205 438.701 347.177 438.707 347.151C438.713 347.124 438.724 347.099 438.74 347.077C438.756 347.055 438.776 347.036 438.799 347.022C438.823 347.008 438.848 346.998 438.875 346.994C439.644 346.957 440.411 347.089 441.122 347.383C441.832 347.676 442.47 348.122 442.987 348.69C443.027 348.731 443.049 348.785 443.049 348.842C443.049 348.899 443.027 348.954 442.987 348.995C442.954 349.053 442.899 349.095 442.834 349.113Z" fill="black"/>
<path d="M500.417 342.451H500.298C500.258 342.41 500.236 342.355 500.236 342.298C500.236 342.241 500.258 342.187 500.298 342.146C500.803 341.444 501.456 340.861 502.21 340.437C502.964 340.012 503.801 339.756 504.664 339.688C504.719 339.691 504.771 339.713 504.811 339.75C504.851 339.787 504.878 339.837 504.885 339.891C504.885 339.949 504.862 340.005 504.821 340.047C504.779 340.088 504.723 340.111 504.664 340.111C503.872 340.183 503.105 340.422 502.413 340.814C501.721 341.206 501.122 341.741 500.655 342.383C500.63 342.421 500.592 342.449 500.549 342.462C500.505 342.474 500.458 342.47 500.417 342.451Z" fill="black"/>
<path d="M501.062 339.433C501.024 339.447 500.982 339.447 500.943 339.433C500.909 339.393 500.89 339.342 500.89 339.289C500.89 339.236 500.909 339.185 500.943 339.145C501.438 338.437 502.086 337.849 502.839 337.424C503.592 336.998 504.43 336.747 505.293 336.687C505.347 336.687 505.399 336.708 505.437 336.746C505.475 336.784 505.497 336.836 505.497 336.89C505.497 336.946 505.476 336.999 505.438 337.04C505.401 337.081 505.349 337.106 505.293 337.111C504.499 337.175 503.729 337.412 503.037 337.804C502.344 338.197 501.746 338.735 501.283 339.382C501.252 339.406 501.216 339.423 501.178 339.432C501.14 339.441 501.101 339.441 501.062 339.433Z" fill="black"/>
<path d="M459.18 181.719C459.131 181.72 459.084 181.703 459.046 181.672C459.009 181.641 458.984 181.598 458.976 181.55C458.968 181.523 458.966 181.495 458.971 181.467C458.976 181.439 458.987 181.413 459.003 181.39C459.02 181.367 459.041 181.349 459.066 181.335C459.09 181.322 459.118 181.314 459.146 181.312C461.222 180.914 463.262 180.347 465.245 179.617C465.272 179.603 465.301 179.596 465.331 179.594C465.36 179.593 465.39 179.598 465.417 179.609C465.445 179.621 465.47 179.638 465.49 179.66C465.51 179.682 465.525 179.708 465.534 179.736C465.545 179.761 465.551 179.789 465.55 179.817C465.55 179.844 465.544 179.872 465.533 179.897C465.522 179.922 465.506 179.945 465.486 179.964C465.465 179.983 465.441 179.998 465.415 180.007C463.401 180.749 461.326 181.316 459.213 181.702L459.18 181.719Z" fill="black"/>
<path d="M328.418 221.067C330.219 205.81 339.972 217.304 343.506 195.044L352.409 194.129C353.403 197.701 355.101 201.04 357.403 203.951C359.704 206.862 362.564 209.286 365.815 211.082C376.774 216.982 359.528 256.719 359.528 256.719L332.733 256.262C332.733 256.262 326.634 236.071 328.418 221.067Z" fill="url(#paint8_linear)"/>
<path d="M336.505 166.767C341.381 156.341 355.433 156.476 360.004 163.02C361.601 165.309 361.958 169.394 361.703 173.734L362.28 173.412C366.392 171.564 367.649 178.278 365.492 181.465C364.228 183.152 362.37 184.297 360.292 184.669C359.767 186.742 358.779 188.669 357.402 190.307C356.025 191.945 354.295 193.252 352.341 194.129C347.413 196.333 341.025 197.231 338.527 195.824C334.194 193.4 331.629 177.193 336.505 166.767Z" fill="#CC7646"/>
<path d="M370.946 367.44C368.72 365.151 361.006 358.556 361.006 358.556C360.785 354.742 367.581 315.157 367.802 292.524C367.955 276.012 358.882 250.616 361.771 256.72L332.767 256.262C332.767 256.262 323.371 270.858 323.643 293.558C323.915 316.259 326.769 354.877 326.565 358.692C326.565 358.692 318.885 365.304 316.66 367.609C314.434 369.915 325.155 370.101 335.095 362.269C335.095 362.269 339.716 329.058 337.949 316.784L345.561 277.351H347.073L349.503 316.784C347.804 329.058 352.527 362.252 352.527 362.252C362.45 369.966 373.188 369.745 370.946 367.44Z" fill="#1F69B2"/>
<path d="M347.023 277.487C343.343 277.434 339.671 277.14 336.03 276.605C335.973 276.593 335.922 276.561 335.888 276.514C335.853 276.467 335.837 276.409 335.843 276.351C335.855 276.295 335.888 276.247 335.936 276.215C335.983 276.184 336.041 276.171 336.098 276.182C339.716 276.716 343.366 277.01 347.023 277.063C347.077 277.063 347.129 277.085 347.167 277.123C347.205 277.161 347.227 277.213 347.227 277.267C347.229 277.295 347.225 277.323 347.216 277.35C347.207 277.376 347.192 277.401 347.173 277.422C347.154 277.442 347.131 277.459 347.105 277.47C347.079 277.481 347.051 277.487 347.023 277.487Z" fill="black"/>
<path d="M345.545 277.487C345.501 277.487 345.458 277.474 345.422 277.45C345.386 277.426 345.357 277.391 345.341 277.351C343.981 273.961 344.899 267.773 344.933 267.502C344.945 267.446 344.979 267.397 345.026 267.366C345.074 267.334 345.132 267.322 345.188 267.332C345.215 267.336 345.241 267.346 345.264 267.36C345.287 267.374 345.307 267.393 345.323 267.415C345.339 267.437 345.35 267.462 345.356 267.489C345.362 267.515 345.363 267.543 345.358 267.569C345.358 267.569 344.423 273.927 345.732 277.199C345.742 277.224 345.748 277.252 345.748 277.279C345.748 277.307 345.742 277.335 345.731 277.36C345.72 277.385 345.703 277.408 345.683 277.427C345.663 277.446 345.639 277.461 345.613 277.47L345.545 277.487Z" fill="black"/>
<path d="M341.773 277.046C341.728 277.043 341.685 277.026 341.649 276.999C341.613 276.972 341.585 276.936 341.569 276.894C340.823 273.815 340.748 270.612 341.348 267.502C341.352 267.475 341.362 267.449 341.376 267.426C341.39 267.403 341.409 267.383 341.431 267.367C341.453 267.351 341.478 267.34 341.505 267.334C341.532 267.328 341.559 267.327 341.586 267.332C341.642 267.344 341.691 267.378 341.722 267.425C341.754 267.473 341.766 267.53 341.756 267.586C341.176 270.63 341.251 273.762 341.977 276.775C341.985 276.801 341.988 276.827 341.985 276.854C341.983 276.881 341.975 276.907 341.962 276.93C341.949 276.954 341.932 276.975 341.911 276.992C341.891 277.009 341.867 277.021 341.841 277.029L341.773 277.046Z" fill="black"/>
<path d="M334.195 359.082C334.168 359.08 334.142 359.072 334.118 359.06C334.094 359.048 334.072 359.031 334.055 359.01C334.038 358.99 334.025 358.966 334.016 358.941C334.008 358.915 334.005 358.888 334.008 358.861C337.236 331.448 335.894 315.496 335.877 315.326C337.236 309.189 343.556 277.606 343.607 277.283C343.607 277.251 343.615 277.219 343.629 277.189C343.643 277.16 343.663 277.134 343.688 277.113C343.714 277.092 343.743 277.078 343.775 277.07C343.807 277.062 343.84 277.061 343.872 277.067C343.904 277.074 343.934 277.087 343.96 277.107C343.986 277.126 344.008 277.151 344.023 277.18C344.039 277.209 344.047 277.241 344.049 277.273C344.051 277.306 344.045 277.338 344.032 277.368C344.032 277.69 337.678 309.172 336.301 315.377C336.301 316.208 337.593 332.093 334.432 358.946C334.417 358.994 334.384 359.035 334.34 359.06C334.296 359.085 334.244 359.093 334.195 359.082Z" fill="black"/>
<path d="M333.311 211.913C329.726 213.761 319.107 217.27 316.796 244.123L298.344 238.732C295.982 234.782 287.452 230.256 287.52 231.866C287.588 233.477 290.681 235.409 290.681 235.409C286.178 236.427 280.078 232.883 279.263 234.799C278.447 236.715 285.753 243.903 295.557 244.276C295.557 244.276 322.743 261.907 326.311 253.041C329.879 244.174 336.879 209.98 333.311 211.913Z" fill="url(#paint9_linear)"/>
<path d="M361.771 173.735C360.412 174.852 359.423 176.353 358.933 178.041C356.617 175.342 355.13 172.034 354.652 168.513C353.076 169.735 351.268 170.624 349.337 171.128C347.407 171.633 345.394 171.741 343.421 171.446C345.171 169.714 346.517 167.619 347.362 165.309C347.362 165.309 344.151 171.581 332.733 172.446C332.733 172.446 334.347 157.9 348.943 157.833C363.538 157.765 365.356 162.105 365.611 165.038C365.621 167.832 365.313 170.619 364.693 173.345C364.693 173.345 362.603 172.921 361.771 173.735Z" fill="#75421C"/>
<path d="M361.006 358.556C361.006 358.556 368.72 365.151 370.946 367.44C373.172 369.728 362.45 369.966 352.494 362.167C352.494 362.167 352.307 360.828 352.018 358.624C361.176 362.218 361.006 358.556 361.006 358.556Z" fill="#004699"/>
<path d="M316.626 367.541C318.852 365.236 326.531 358.624 326.531 358.624C326.531 358.624 325.954 363.1 335.588 358.2C335.265 360.692 335.061 362.201 335.061 362.201C325.138 370.033 314.332 369.847 316.626 367.541Z" fill="#004699"/>
<path d="M337.474 209.183C342.826 219.185 359.562 206.488 359.562 206.488C361.396 208.302 363.478 209.849 365.746 211.082C376.706 216.982 361.72 239.02 363.555 265.738C357.269 266.921 350.887 267.523 344.491 267.535C334.024 267.535 329.539 262.45 329.539 262.45C330.269 249.582 326.565 236.054 328.349 221.05C329.522 211.675 333.651 212.421 337.474 209.183Z" fill="#004699"/>
<path d="M333.311 211.913C336.199 210.404 332.172 232.477 328.621 245.632C324.388 244.959 320.43 243.108 317.203 240.292C320.143 216.88 329.913 213.608 333.311 211.913Z" fill="#004699"/>
<path d="M376.417 270.875C376.757 269.366 380.172 253.566 379.135 244.53C378.048 234.969 379.543 214.133 360.309 208.776C356.435 207.691 356.13 215.558 366.341 240.478C370.367 250.116 371.649 260.676 370.045 270.994C366.817 274.232 365.135 285.065 366.375 283.929C367.46 282.752 368.407 281.456 369.196 280.064C371.388 284.116 369.62 290.931 371.676 291.219C373.732 291.507 377.742 286.133 377.368 277.945C377.203 275.57 376.885 273.209 376.417 270.875Z" fill="url(#paint10_linear)"/>
<path d="M360.309 208.776C375.601 213.048 377.81 227.153 378.609 237.596C371.812 238.478 368.584 241.445 367.31 243.089C367.021 242.242 366.698 241.394 366.341 240.529C356.13 215.608 356.435 207.691 360.309 208.776Z" fill="#004699"/>
<path d="M288.132 235.901C287.926 236.138 287.759 236.407 287.639 236.698C284.963 236.476 282.385 235.584 280.146 234.104C280.129 234.086 280.108 234.071 280.084 234.061C280.061 234.051 280.036 234.046 280.01 234.046C279.985 234.046 279.96 234.051 279.936 234.061C279.913 234.071 279.892 234.086 279.875 234.104C279.841 234.141 279.823 234.19 279.823 234.24C279.823 234.29 279.841 234.338 279.875 234.375C282.124 235.882 284.719 236.798 287.418 237.037C287.266 237.427 287.096 237.936 286.909 238.597C284.407 238.268 282.01 237.388 279.891 236.02C279.876 236.002 279.856 235.987 279.834 235.977C279.812 235.968 279.788 235.962 279.764 235.962C279.74 235.962 279.716 235.968 279.694 235.977C279.672 235.987 279.653 236.002 279.637 236.02C279.619 236.036 279.604 236.055 279.594 236.077C279.584 236.099 279.579 236.123 279.579 236.147C279.579 236.171 279.584 236.195 279.594 236.217C279.604 236.239 279.619 236.258 279.637 236.274C281.781 237.674 284.215 238.573 286.756 238.902C286.654 239.343 286.552 239.817 286.433 240.377C286.428 240.401 286.428 240.427 286.433 240.451C286.438 240.476 286.448 240.499 286.463 240.519C286.477 240.54 286.495 240.557 286.516 240.571C286.538 240.584 286.561 240.593 286.586 240.597C286.633 240.602 286.68 240.589 286.718 240.561C286.756 240.533 286.781 240.491 286.79 240.445C286.921 238.889 287.428 237.388 288.268 236.071C288.287 236.053 288.301 236.032 288.311 236.009C288.321 235.986 288.327 235.96 288.327 235.935C288.327 235.91 288.321 235.885 288.311 235.861C288.301 235.838 288.287 235.817 288.268 235.799C288.238 235.803 288.21 235.814 288.186 235.832C288.163 235.85 288.144 235.874 288.132 235.901Z" fill="#8C3918"/>
<path d="M290.868 235.342C290.876 235.318 290.879 235.294 290.877 235.269C290.875 235.244 290.869 235.22 290.858 235.198C290.847 235.176 290.831 235.157 290.813 235.14C290.794 235.124 290.772 235.112 290.749 235.104C290.699 235.088 290.645 235.091 290.597 235.113C290.55 235.135 290.513 235.174 290.494 235.223C290.262 236.02 290.244 236.863 290.44 237.669C290.637 238.476 291.042 239.216 291.615 239.817C291.636 239.828 291.66 239.833 291.683 239.833C291.707 239.833 291.73 239.828 291.751 239.817C291.795 239.832 291.843 239.832 291.887 239.817C291.92 239.78 291.939 239.732 291.939 239.682C291.939 239.632 291.92 239.583 291.887 239.546C291.356 239 290.981 238.322 290.802 237.583C290.623 236.843 290.645 236.069 290.868 235.342Z" fill="#8C3918"/>
<path d="M375.499 283.115C375.475 283.113 375.45 283.116 375.426 283.123C375.403 283.13 375.381 283.142 375.362 283.158C375.343 283.173 375.327 283.193 375.316 283.215C375.305 283.236 375.298 283.26 375.295 283.285C374.873 286.027 373.878 288.649 372.373 290.982C372.34 291.019 372.321 291.067 372.321 291.117C372.321 291.167 372.34 291.215 372.373 291.253C372.389 291.26 372.406 291.264 372.424 291.264C372.442 291.264 372.459 291.26 372.475 291.253C372.508 291.257 372.543 291.251 372.573 291.236C372.603 291.221 372.628 291.197 372.645 291.168C374.186 288.787 375.199 286.105 375.618 283.302C375.621 283.262 375.611 283.223 375.589 283.189C375.568 283.156 375.536 283.13 375.499 283.115Z" fill="#8C3918"/>
<path d="M373.579 280.945C373.528 280.94 373.476 280.955 373.435 280.987C373.394 281.018 373.367 281.064 373.359 281.115C372.862 284.162 371.923 287.12 370.572 289.896C370.539 289.934 370.52 289.982 370.52 290.032C370.52 290.082 370.539 290.13 370.572 290.168H370.674C370.723 290.188 370.778 290.188 370.827 290.168C372.22 287.374 373.176 284.384 373.664 281.301C373.704 281.283 373.736 281.252 373.755 281.214C373.774 281.175 373.779 281.13 373.769 281.088C373.759 281.046 373.734 281.009 373.7 280.983C373.665 280.957 373.623 280.944 373.579 280.945Z" fill="#8C3918"/>
<path d="M369.536 173.887C370.527 169.093 369.62 164.103 367.004 159.962C364.388 155.822 360.268 152.852 355.505 151.677C350.743 150.502 345.71 151.212 341.462 153.659C337.213 156.105 334.079 160.098 332.716 164.8" fill="#FFB300"/>
<path d="M371.065 174.277L331.187 164.444C330.826 164.373 330.452 164.443 330.142 164.639C329.832 164.836 329.61 165.145 329.522 165.501C329.435 165.858 329.488 166.234 329.672 166.552C329.855 166.87 330.155 167.104 330.507 167.207L370.402 177.023C370.583 177.068 370.77 177.076 370.955 177.049C371.139 177.021 371.315 176.957 371.475 176.861C371.634 176.765 371.773 176.638 371.883 176.489C371.994 176.339 372.073 176.169 372.118 175.989C372.163 175.809 372.171 175.621 372.143 175.438C372.115 175.254 372.052 175.078 371.955 174.919C371.859 174.76 371.732 174.621 371.582 174.511C371.433 174.401 371.262 174.321 371.082 174.277H371.065Z" fill="#DB8200"/>
<path d="M359.528 152.916C358.984 152.645 358.424 152.391 357.829 152.17C353.317 151.58 348.744 152.653 344.969 155.188C341.193 157.722 338.474 161.544 337.321 165.936L340.804 166.801C341.862 162.698 344.298 159.082 347.705 156.555C351.113 154.028 355.286 152.744 359.528 152.916Z" fill="#DB8200"/>
<path d="M343.336 196.655C343.307 196.657 343.279 196.654 343.252 196.645C343.226 196.635 343.201 196.621 343.18 196.602C343.159 196.583 343.143 196.559 343.132 196.533C343.12 196.508 343.115 196.48 343.115 196.451C343.119 196.394 343.143 196.341 343.184 196.3C343.224 196.26 343.278 196.235 343.336 196.231C345.316 196.183 347.274 195.805 349.129 195.112C349.181 195.095 349.238 195.097 349.288 195.119C349.339 195.141 349.379 195.181 349.401 195.231C349.412 195.256 349.418 195.284 349.418 195.312C349.417 195.339 349.412 195.367 349.4 195.392C349.389 195.417 349.373 195.44 349.353 195.459C349.332 195.478 349.309 195.493 349.282 195.502C347.38 196.221 345.369 196.611 343.336 196.655Z" fill="black"/>
<path d="M362.586 231.053C362.543 231.053 362.5 231.04 362.464 231.016C362.427 230.991 362.399 230.957 362.382 230.917C357.676 218.745 361.482 212.93 361.652 212.692C361.671 212.673 361.693 212.658 361.718 212.648C361.743 212.638 361.769 212.633 361.796 212.633C361.823 212.633 361.849 212.638 361.874 212.648C361.899 212.658 361.922 212.673 361.941 212.692C361.96 212.711 361.975 212.734 361.985 212.759C361.995 212.783 362 212.81 362 212.837C362 212.863 361.995 212.89 361.985 212.915C361.975 212.939 361.96 212.962 361.941 212.981C361.195 214.338 360.733 215.831 360.581 217.371C360.156 221.962 360.898 226.586 362.739 230.815C362.753 230.867 362.749 230.922 362.727 230.972C362.706 231.021 362.668 231.061 362.62 231.086L362.586 231.053Z" fill="black"/>
<path d="M328.689 243.75C328.642 243.746 328.598 243.727 328.562 243.697C328.525 243.666 328.499 243.626 328.486 243.581C328.333 242.886 324.578 226.492 328.842 219.118C328.861 219.099 328.884 219.084 328.909 219.073C328.933 219.063 328.96 219.058 328.987 219.058C329.014 219.058 329.04 219.063 329.065 219.073C329.09 219.084 329.112 219.099 329.131 219.118C329.166 219.158 329.185 219.209 329.185 219.262C329.185 219.315 329.166 219.366 329.131 219.406C324.951 226.628 328.774 243.394 328.825 243.564C328.832 243.619 328.818 243.675 328.787 243.722C328.756 243.769 328.709 243.803 328.655 243.818L328.689 243.75Z" fill="black"/>
<path d="M324.527 364.608C324.478 364.628 324.423 364.628 324.374 364.608C324.004 364.201 323.553 363.874 323.05 363.649C322.547 363.424 322.003 363.307 321.451 363.303C321.425 363.305 321.398 363.302 321.372 363.294C321.346 363.286 321.323 363.273 321.302 363.256C321.281 363.238 321.265 363.217 321.252 363.193C321.24 363.169 321.233 363.143 321.23 363.116C321.226 363.088 321.227 363.06 321.234 363.032C321.241 363.005 321.253 362.979 321.271 362.956C321.289 362.934 321.311 362.916 321.336 362.902C321.361 362.889 321.389 362.881 321.417 362.879C322.03 362.867 322.637 362.988 323.197 363.234C323.758 363.48 324.258 363.845 324.663 364.303C324.682 364.322 324.697 364.345 324.707 364.369C324.717 364.394 324.723 364.421 324.723 364.447C324.723 364.474 324.717 364.501 324.707 364.525C324.697 364.55 324.682 364.572 324.663 364.591C324.621 364.612 324.573 364.618 324.527 364.608Z" fill="black"/>
<path d="M326.107 363.049C326.058 363.068 326.003 363.068 325.954 363.049C325.583 362.646 325.135 362.323 324.635 362.098C324.136 361.874 323.596 361.753 323.048 361.743C322.946 361.743 322.827 361.743 322.81 361.557C322.81 361.504 322.828 361.452 322.863 361.412C322.897 361.371 322.945 361.345 322.997 361.336C323.611 361.323 324.219 361.442 324.782 361.685C325.345 361.928 325.849 362.289 326.26 362.744C326.299 362.785 326.321 362.839 326.321 362.896C326.321 362.953 326.299 363.008 326.26 363.049C326.21 363.064 326.156 363.064 326.107 363.049Z" fill="black"/>
<path d="M362.875 364.761C362.82 364.782 362.76 364.782 362.705 364.761C362.686 364.742 362.671 364.72 362.661 364.695C362.651 364.67 362.645 364.644 362.645 364.617C362.645 364.59 362.651 364.564 362.661 364.539C362.671 364.514 362.686 364.492 362.705 364.473C363.192 363.968 363.794 363.588 364.459 363.364C365.125 363.139 365.834 363.078 366.528 363.184C366.579 363.203 366.622 363.239 366.649 363.285C366.677 363.331 366.688 363.385 366.681 363.439C366.665 363.495 366.628 363.542 366.577 363.571C366.526 363.6 366.466 363.607 366.409 363.591C365.789 363.507 365.158 363.571 364.567 363.777C363.976 363.983 363.443 364.326 363.011 364.778C362.965 364.788 362.917 364.782 362.875 364.761Z" fill="black"/>
<path d="M361.057 363.083C361.007 363.096 360.954 363.096 360.904 363.083C360.868 363.04 360.849 362.986 360.849 362.93C360.849 362.874 360.868 362.82 360.904 362.777C361.389 362.274 361.987 361.895 362.65 361.67C363.312 361.446 364.019 361.384 364.71 361.489C364.766 361.505 364.814 361.542 364.843 361.593C364.871 361.644 364.879 361.704 364.863 361.76C364.844 361.811 364.809 361.853 364.762 361.881C364.716 361.909 364.662 361.92 364.608 361.913C363.988 361.819 363.353 361.877 362.761 362.084C362.169 362.291 361.636 362.64 361.21 363.1C361.158 363.109 361.105 363.103 361.057 363.083Z" fill="black"/>
<defs>
<linearGradient id="paint0_linear" x1="140.923" y1="195.807" x2="148.59" y2="175.452" gradientUnits="userSpaceOnUse">
<stop stop-color="#FFD19F"/>
<stop offset="1" stop-color="#FF9D5E"/>
</linearGradient>
<linearGradient id="paint1_linear" x1="3401.3" y1="10399.2" x2="2697.98" y2="10179.2" gradientUnits="userSpaceOnUse">
<stop stop-color="#FFD19F"/>
<stop offset="1" stop-color="#FF9D5E"/>
</linearGradient>
<linearGradient id="paint2_linear" x1="1752.53" y1="7314.69" x2="2188.45" y2="6963.47" gradientUnits="userSpaceOnUse">
<stop stop-color="#FFD19F"/>
<stop offset="1" stop-color="#FF9D5E"/>
</linearGradient>
<linearGradient id="paint3_linear" x1="-10814.8" y1="7414.84" x2="-11082.3" y2="6981.16" gradientUnits="userSpaceOnUse">
<stop stop-color="#FFD19F"/>
<stop offset="1" stop-color="#FF9D5E"/>
</linearGradient>
<linearGradient id="paint4_linear" x1="-17538.1" y1="5471.82" x2="-16236.5" y2="6115.49" gradientUnits="userSpaceOnUse">
<stop stop-color="#FFD19F"/>
<stop offset="1" stop-color="#FF9D5E"/>
</linearGradient>
<linearGradient id="paint5_linear" x1="225.384" y1="345.348" x2="212.229" y2="340.009" gradientUnits="userSpaceOnUse">
<stop stop-color="#FFD19F"/>
<stop offset="1" stop-color="#FF9D5E"/>
</linearGradient>
<linearGradient id="paint6_linear" x1="-866.839" y1="997.583" x2="-948.327" y2="956.096" gradientUnits="userSpaceOnUse">
<stop stop-color="#FFD19F"/>
<stop offset="1" stop-color="#FF9D5E"/>
</linearGradient>
<linearGradient id="paint7_linear" x1="-3985.95" y1="9629.82" x2="-4320.92" y2="9579.67" gradientUnits="userSpaceOnUse">
<stop stop-color="#FFD19F"/>
<stop offset="1" stop-color="#FF9D5E"/>
</linearGradient>
<linearGradient id="paint8_linear" x1="342.996" y1="216.778" x2="332.502" y2="191.196" gradientUnits="userSpaceOnUse">
<stop stop-color="#CC7646"/>
<stop offset="0.99" stop-color="#BC4B1A"/>
</linearGradient>
<linearGradient id="paint9_linear" x1="10085.2" y1="6509.87" x2="10802" y2="5666.64" gradientUnits="userSpaceOnUse">
<stop stop-color="#CC7646"/>
<stop offset="0.99" stop-color="#BC4B1A"/>
</linearGradient>
<linearGradient id="paint10_linear" x1="5186.69" y1="13415.1" x2="3913.44" y2="12837" gradientUnits="userSpaceOnUse">
<stop stop-color="#CC7646"/>
<stop offset="0.99" stop-color="#BC4B1A"/>
</linearGradient>
</defs>
</svg>
