<?xml version="1.0" encoding="UTF-8"?>
<svg width="10px" height="23px" viewBox="0 0 10 23" version="1.1" xmlns="http://www.w3.org/2000/svg" xmlns:xlink="http://www.w3.org/1999/xlink">
    <!-- Generator: Sketch 49 (51002) - http://www.bohemiancoding.com/sketch -->
    <title>facebook-letter-logo</title>
    <desc>Created with Sketch.</desc>
    <defs></defs>
    <g id="Page-1" stroke="none" stroke-width="1" fill="none" fill-rule="evenodd">
        <g id="home-neg-al" transform="translate(-1136.000000, -2797.000000)" fill="#FFFFFF" fill-rule="nonzero">
            <g id="facebook-letter-logo" transform="translate(1136.000000, 2797.000000)">
                <path d="M2.16144718,4.28836642 C2.16144718,4.84637556 2.16144718,7.33700425 2.16144718,7.33700425 L0,7.33700425 L0,11.0648904 L2.16144718,11.0648904 L2.16144718,22.1428571 L6.60151852,22.1428571 L6.60151852,11.0651993 L9.58101254,11.0651993 C9.58101254,11.0651993 9.8600552,9.2777064 9.99531691,7.32325866 C9.60751686,7.32325866 6.61830791,7.32325866 6.61830791,7.32325866 C6.61830791,7.32325866 6.61830791,5.15449298 6.61830791,4.77435279 C6.61830791,4.3933889 7.1024103,3.88094098 7.58088301,3.88094098 C8.05845896,3.88094098 9.06642022,3.88094098 10,3.88094098 C10,3.37338381 10,1.61966285 10,0 C8.75369915,0 7.3358177,0 6.71082393,0 C2.05169339,-0.000257408037 2.16144718,3.73133543 2.16144718,4.28836642 Z" id="Facebook"></path>
            </g>
        </g>
    </g>
</svg>