<svg id="Capa_1" data-name="Capa 1" xmlns="http://www.w3.org/2000/svg" viewBox="0 0 460.56 166.36"><defs><style>.cls-1{font-size:69.25px;fill:#055891;letter-spacing:-0.05em;}.cls-1,.cls-5{font-family:CenturyGothic-Bold, Century Gothic;}.cls-2,.cls-5{font-weight:700;}.cls-3{font-size:67.13px;fill:#a5a5a5;font-family:CenturyGothic, Century Gothic;letter-spacing:-0.05em;}.cls-4{fill:#7f7f7f;}.cls-11,.cls-5,.cls-6{fill:#00c186;}.cls-5{letter-spacing:-0.05em;}.cls-11,.cls-6{stroke:#00c186;}.cls-10,.cls-11,.cls-12,.cls-13,.cls-14,.cls-6,.cls-7,.cls-8,.cls-9{stroke-miterlimit:10;}.cls-6,.cls-7,.cls-8,.cls-9{stroke-width:0.42px;}.cls-12,.cls-7{fill:#4794b6;stroke:#4594b3;}.cls-14,.cls-8{fill:#40d3a2;stroke:#40d3a2;}.cls-10,.cls-13,.cls-9{fill:#215b90;stroke:#2b589f;}.cls-10{stroke-width:0.42px;}.cls-11,.cls-12,.cls-13,.cls-14{stroke-linecap:round;stroke-width:2.59px;}</style></defs><title>logo</title><text class="cls-1" transform="translate(151.03 65.93)"><tspan class="cls-2">Negocios </tspan><tspan class="cls-3"><tspan x="0" y="75.93">&amp;</tspan><tspan class="cls-4" x="47.45" y="75.93"> </tspan><tspan class="cls-5" x="62.68" y="75.93">Alianzas</tspan></tspan></text><path class="cls-6" d="M45.81,237.5l-.21,28.92,24.94,14.64,25.15-14.27.21-28.92L71,223.22Zm46.13,2.61-.18,24.37-21.2,12-21-12.34.18-24.37,21.2-12Z" transform="translate(-18.44 -170.77)"/><path class="cls-7" d="M149.5,238.13l-24.78-14.9-25.3,14-.52,28.91,24.78,14.9L149,267Zm-25.73,38.38-20.89-12.56.44-24.37,21.32-11.81,20.89,12.56-.44,24.37Z" transform="translate(-18.44 -170.77)"/><path class="cls-8" d="M122.26,283.65,97.38,268.92,72.18,283.1,71.86,312l24.88,14.73,25.2-14.18ZM96.79,322.21l-21-12.42.27-24.37,21.24-12,21,12.42L118,310.25Z" transform="translate(-18.44 -170.77)"/><path class="cls-9" d="M124.08,193.06,99.62,177.64,74,191.1,72.9,220l24.46,15.43L123,222ZM97.54,230.89l-20.62-13,1-24.36,21.57-11.35,20.62,13-1,24.36Z" transform="translate(-18.44 -170.77)"/><rect class="cls-8" x="63.01" y="306.24" width="4.59" height="24.79" transform="translate(263.39 -94.85) rotate(53.32)"/><rect class="cls-9" x="129.15" y="174.63" width="4.59" height="24.79" transform="translate(195.87 -196.8) rotate(56.35)"/><circle class="cls-10" cx="141.51" cy="181.45" r="10.47" transform="translate(-72.59 131.78) rotate(-83.8)"/><circle class="cls-8" cx="54.82" cy="326.45" r="10.47" transform="translate(-292.59 192.42) rotate(-86.84)"/><rect class="cls-6" x="36.51" y="217.63" width="4.59" height="24.79" transform="translate(216.79 185.08) rotate(132.22)"/><circle class="cls-6" cx="29.12" cy="221.24" r="10.47" transform="translate(-48.71 -164.63) rotate(-7.94)"/><line class="cls-11" x1="36.61" y1="71.37" x2="36.61" y2="91.04"/><line class="cls-12" x1="122.64" y1="71.37" x2="122.64" y2="91.04"/><line class="cls-13" x1="81.62" y1="17.39" x2="64.26" y2="26.64"/><line class="cls-14" x1="95.41" y1="136.77" x2="78.08" y2="146.09"/></svg>