<?xml version="1.0" encoding="iso-8859-1"?>
<!-- Generator: Adobe Illustrator 17.1.0, SVG Export Plug-In . SVG Version: 6.00 Build 0)  -->
<!DOCTYPE svg PUBLIC "-//W3C//DTD SVG 1.1//EN" "http://www.w3.org/Graphics/SVG/1.1/DTD/svg11.dtd">
<svg xmlns="http://www.w3.org/2000/svg" xmlns:xlink="http://www.w3.org/1999/xlink" version="1.1" id="Capa_1" x="0px" y="0px" viewBox="0 0 442 442" style="enable-background:new 0 0 442 442;" xml:space="preserve" width="512px" height="512px">
<path d="M313.217,184.678c-1.886-1.966-4.492-3.077-7.217-3.077h-20v-90.8c0-5.522-4.478-10-10-10h-10V10c0-5.523-4.478-10-10-10  h-70c-5.523,0-10,4.477-10,10v20.4h-10c-5.523,0-10,4.477-10,10s4.477,10,10,10h10v30.4h-10c-5.523,0-10,4.478-10,10v90.8h-20  c-2.725,0-5.331,1.111-7.217,3.077c-1.886,1.966-2.888,4.616-2.774,7.339l8.338,200.433C135.482,419.772,158.654,442,186,442h70  c27.346,0,50.518-22.228,51.653-49.55l8.338-200.434C316.104,189.294,315.103,186.644,313.217,184.678z M196,20h50v60.801h-50V20z   M176,100.801h90v80.8h-0.612c-0.221-0.024-0.441-0.052-0.667-0.062c-0.143-0.006-0.282-0.009-0.423-0.009  c-0.384,0-0.761,0.028-1.135,0.07H178.79c-0.495-0.053-0.998-0.083-1.512-0.061c-0.222,0.009-0.439,0.037-0.656,0.061H176V100.801z   M287.671,391.619C286.974,408.371,272.767,422,256,422h-70c-16.767,0-30.974-13.629-31.671-30.382l-7.904-190.018h21.68  l5.167,124.217c1.004,24.151,22.861,44.555,47.729,44.555s46.725-20.403,47.728-44.554l1.972-47.403  c0.229-5.518-4.058-10.178-9.575-10.407c-5.547-0.234-10.178,4.058-10.407,9.575l-1.972,47.404  c-0.563,13.522-13.528,25.385-27.746,25.385s-27.184-11.862-27.746-25.386l-5.132-123.386h65.757l-1.742,41.876  c-0.23,5.519,4.058,10.178,9.575,10.407c0.143,0.006,0.282,0.009,0.423,0.009c5.331,0,9.761-4.208,9.984-9.584l1.776-42.708h21.68  L287.671,391.619z" fill="#FFFFFF"/>
<g>
</g>
<g>
</g>
<g>
</g>
<g>
</g>
<g>
</g>
<g>
</g>
<g>
</g>
<g>
</g>
<g>
</g>
<g>
</g>
<g>
</g>
<g>
</g>
<g>
</g>
<g>
</g>
<g>
</g>
</svg>
