<?xml version="1.0" encoding="iso-8859-1"?>
<!-- Generator: Adobe Illustrator 19.0.0, SVG Export Plug-In . SVG Version: 6.00 Build 0)  -->
<svg xmlns="http://www.w3.org/2000/svg" xmlns:xlink="http://www.w3.org/1999/xlink" version="1.1" id="Capa_1" x="0px" y="0px" viewBox="0 0 512 512" style="enable-background:new 0 0 512 512;" xml:space="preserve" width="512px" height="512px">
<g>
	<g>
		<g>
			<path d="M461.667,128h-35V96c0-5.896-4.771-10.667-10.667-10.667h-10.667V10.667C405.333,4.771,400.563,0,394.667,0h-85.333     c-5.896,0-10.667,4.771-10.667,10.667v74.667H288h-21.333c-108.538,0-197.164,85.831-202.185,193.148     C26.025,286.341,0,337.557,0,384c0,50.24,30.708,85.333,74.667,85.333c43.958,0,74.667-35.094,74.667-85.333     c0-46.056-25.6-96.779-63.53-105.288c4.883-95.661,84.009-172.046,180.863-172.046h10.667V128h-35     C214.583,128,192,150.583,192,178.333c0,0.115,0,0.229,0.01,0.344l19.354,293.49C212.844,494.5,231.552,512,253.938,512h196.125     c22.385,0,41.094-17.5,42.573-39.833l19.167-287.708l0.198-6.125C512,150.583,489.417,128,461.667,128z M128,384     c0,38.281-21.438,64-53.333,64c-31.896,0-53.333-25.719-53.333-64c0-43.865,25.917-85.333,53.333-85.333     C102.083,298.667,128,340.135,128,384z M320,21.333h64v64h-64V21.333z M298.667,106.667h106.667V128H298.667V106.667z      M471.344,470.75c-0.74,11.167-10.083,19.917-21.281,19.917H253.938c-11.198,0-20.542-8.75-21.281-19.917L213.51,183.771     l-0.177-5.594c0.083-15.917,13.063-28.844,29-28.844h219.333c15.99,0,29,13.01,29.01,28.656L471.344,470.75z" fill="#FFFFFF"/>
			<circle cx="352" cy="53.333" r="21.333" fill="#FFFFFF"/>
		</g>
	</g>
</g>
<g>
</g>
<g>
</g>
<g>
</g>
<g>
</g>
<g>
</g>
<g>
</g>
<g>
</g>
<g>
</g>
<g>
</g>
<g>
</g>
<g>
</g>
<g>
</g>
<g>
</g>
<g>
</g>
<g>
</g>
</svg>
