<?xml version="1.0" encoding="iso-8859-1"?>
<!-- Generator: Adobe Illustrator 19.0.0, SVG Export Plug-In . SVG Version: 6.00 Build 0)  -->
<svg xmlns="http://www.w3.org/2000/svg" xmlns:xlink="http://www.w3.org/1999/xlink" version="1.1" id="Capa_1" x="0px" y="0px" viewBox="0 0 512 512" style="enable-background:new 0 0 512 512;" xml:space="preserve" width="512px" height="512px">
<g>
	<g>
		<g>
			<path d="M483.335,279.885c2.552-3.762,4.346-8.025,5.596-12.509C503.099,257.464,512,241.487,512,224     c0-25.76-18.365-47.313-42.677-52.26c0.01-0.365,0.01-0.719,0.01-1.073c0-21.844-16.5-39.906-37.688-42.375     c-7.479-13.188-21.531-21.625-36.979-21.625c-15.438,0-29.521,8.552-36.979,21.667c-3.781-0.427-7.469-0.479-11.354,0.031     c-7.448-13.135-21.531-21.698-37-21.698c-8.271,0-16.281,2.448-23.125,6.927c-5.521-4.417-12.365-6.927-19.542-6.927     c-17.646,0-32,14.354-32,32c0,13.917,8.938,25.792,21.375,30.188c-0.031,0.604-0.042,1.208-0.042,1.813     c0,0.365,0,0.74,0.01,1.104c-3.49-0.729-7.063-1.104-10.677-1.104c-25.754,0-47.298,18.353-52.254,42.667h-9.225     c-5.375,0-8.135-3.542-9.073-5.063c-0.948-1.521-2.875-5.573-0.469-10.375l34.25-68.5c3.125-6.24,4.771-13.229,4.771-20.208     c0-24.917-20.271-45.188-45.188-45.188H160c-2.958,0-5.781,1.229-7.802,3.385L37.292,190.5C13.25,216.271,0,249.875,0,285.115     V384c0,58.813,47.854,106.667,106.667,106.667H384c23.531,0,42.667-19.135,42.667-42.667c0-7.806-2.259-15.033-5.934-21.333H448     c23.531,0,42.667-19.135,42.667-42.667c0-8.845-2.707-17.066-7.332-23.885C499.969,354.288,512,338.602,512,320     S499.969,285.712,483.335,279.885z M245.333,192c9.229,0,17.75,3.938,23.979,11.094c2.021,2.323,5.24,3.26,8.313,3.271h0.01     c3.083,0,6.292-1.719,8.323-4.031c2-2.146,3.031-5.01,2.854-7.927c-0.177-2.927-1.542-5.646-3.781-7.531     c-4.896-4.104-7.698-10.021-7.698-16.208c0-2.385,0.469-4.792,1.417-7.354c1.292-3.448,0.708-7.323-1.542-10.24     c-2.25-2.917-5.875-4.396-9.51-4.104c-0.958,0.094-1.875,0.302-1.031,0.365c-5.885,0-10.667-4.781-10.667-10.667     c-0.01-9.635,14.688-14.188,19.781-4.938c1.688,3.073,4.76,5.125,8.25,5.479c3.396,0.375,6.906-1,9.198-3.656     c10.49-12.292,32.167-7.219,36.49,7.979c0.781,2.75,2.625,5.063,5.135,6.438c2.5,1.354,5.427,1.698,8.177,0.865     c7.177-2.146,12.021-1.906,17.958-0.115c2.708,0.802,5.667,0.51,8.167-0.854c2.5-1.365,4.354-3.667,5.146-6.406     c2.625-9.104,11-15.458,20.365-15.458c8.99,0,17.042,5.771,20.031,14.365c1.5,4.292,6.802,6.979,11.406,6.979     c11.75,0.083,21.896,9.375,21.896,21.323c0,2.313-0.448,4.667-1.375,7.219c-1.229,3.375,0.01,7.052,2.156,9.938     c2.021,2.698,5.781,4.198,9.198,4.198c17.99,0.104,32.688,14.104,32.688,31.979c0,5.215-1.432,10.181-3.762,14.664     c-6.664-14.893-21.557-25.331-38.905-25.331H215.298C219.716,200.944,231.445,192,245.333,192z M469.333,341.333h-160     c-5.896,0-10.667,4.771-10.667,10.667c0,5.896,4.771,10.667,10.667,10.667H448c11.76,0,21.333,9.573,21.333,21.333     c0,11.76-9.573,21.333-21.333,21.333H277.333c-5.896,0-10.667,4.771-10.667,10.667c0,5.896,4.771,10.667,10.667,10.667H384     c11.76,0,21.333,9.573,21.333,21.333c0,11.76-9.573,21.333-21.333,21.333H106.667c-47.052,0-85.333-38.281-85.333-85.333v-98.885     c0-29.813,11.208-58.25,31.563-80.052l111.74-119.729h3.51c13.156,0,23.854,10.698,23.854,23.854     c0,3.677-0.875,7.375-2.521,10.667l-34.25,68.5c-5,9.99-4.469,21.635,1.396,31.135c5.875,9.5,16.052,15.177,27.229,15.177H448     c11.76,0,21.333,9.573,21.333,21.333S459.76,277.333,448,277.333H309.333c-5.896,0-10.667,4.771-10.667,10.667     s4.771,10.667,10.667,10.667h160c11.76,0,21.333,9.573,21.333,21.333S481.094,341.333,469.333,341.333z" fill="#FFFFFF"/>
			<path d="M330.667,85.333c17.646,0,32-14.354,32-32c0-17.646-14.354-32-32-32c-17.646,0-32,14.354-32,32     C298.667,70.979,313.021,85.333,330.667,85.333z M330.667,42.667c5.885,0,10.667,4.781,10.667,10.667     c0,5.885-4.781,10.667-10.667,10.667C324.781,64,320,59.219,320,53.333C320,47.448,324.781,42.667,330.667,42.667z" fill="#FFFFFF"/>
			<path d="M405.333,85.333c11.76,0,21.333-9.573,21.333-21.333s-9.573-21.333-21.333-21.333C393.573,42.667,384,52.24,384,64     S393.573,85.333,405.333,85.333z M416,64h-10.656c0,0-0.01-0.01-0.01-0.021L416,64z" fill="#FFFFFF"/>
		</g>
	</g>
</g>
<g>
</g>
<g>
</g>
<g>
</g>
<g>
</g>
<g>
</g>
<g>
</g>
<g>
</g>
<g>
</g>
<g>
</g>
<g>
</g>
<g>
</g>
<g>
</g>
<g>
</g>
<g>
</g>
<g>
</g>
</svg>
