<?xml version="1.0" encoding="UTF-8"?>
<svg width="14px" height="10px" viewBox="0 0 14 10" version="1.1" xmlns="http://www.w3.org/2000/svg" xmlns:xlink="http://www.w3.org/1999/xlink">
    <!-- Generator: Sketch 49 (51002) - http://www.bohemiancoding.com/sketch -->
    <title>002-close-envelope</title>
    <desc>Created with Sketch.</desc>
    <defs></defs>
    <g id="Page-1" stroke="none" stroke-width="1" fill="none" fill-rule="evenodd">
        <g id="home-neg-al" transform="translate(-141.000000, -349.000000)" fill="#FFFFFF" fill-rule="nonzero">
            <g id="002-close-envelope" transform="translate(141.000000, 349.000000)">
                <path d="M7,7 L5.268,5.484 L0.316,9.729 C0.496,9.896 0.739,10 1.007,10 L12.993,10 C13.26,10 13.502,9.896 13.681,9.729 L8.732,5.484 L7,7 Z" id="Shape"></path>
                <path d="M13.684,0.271 C13.504,0.103 13.262,0 12.993,0 L1.007,0 C0.74,0 0.498,0.104 0.318,0.273 L7,6 L13.684,0.271 Z" id="Shape"></path>
                <polygon id="Shape" points="0 0.878 0 9.186 4.833 5.079"></polygon>
                <polygon id="Shape" points="9.167 5.079 14 9.186 14 0.875"></polygon>
            </g>
        </g>
    </g>
</svg>